<?xml version="1.0" encoding="UTF-8"?>
<svg id="Layer_1" data-name="Layer 1" xmlns="http://www.w3.org/2000/svg" viewBox="0 0 984 999.9">
  <path d="M461,.5c-98.4,6.7-184.4,37.5-263.5,94.2-27.4,19.6-66.7,55.8-87.8,80.8-31.1,36.9-62.1,86.3-78.2,124.8l-1.4,3.5h38.5l2.7-6.3c1.5-3.4,6.6-13.2,11.3-21.7,46.9-84.7,118.2-152.3,205.9-195,45.3-22,95.2-36.6,148.5-43.2,16.2-2,22.9-2.3,54-2.3,30.7.1,38,.4,53.9,2.3,53.8,6.6,104.6,21.7,151.1,44.8,62.5,31.1,114.9,73.3,158.5,127.7,12.8,15.9,32.6,45.3,42.6,63.2,20.5,36.8,37.9,82.2,47.3,123.7l.6,2.8h35.8l-1.9-8.7c-27.8-127.1-108.4-242.1-219.4-312.9C689,33.2,609.1,6.7,525.8.8c-13.2-.9-53.3-1.1-64.8-.3Z"/>
  <path d="M836,355c-4.7,1.6-17.9,5.7-29.5,9.1l-21,6.3-.3,3.1-.3,3.1,8.9.4c10.3.5,13.5,2,16,7.6,1.6,3.4,1.7,13.2,1.7,113.7,0,86.3-.3,111.2-1.3,115.6-2,8.6-6.8,12.3-19.4,14.9-5.5,1.1-5.8,1.3-5.8,4.1v2.9h90v-3c0-1.7-.3-3-.7-3-3.8-.1-15.4-3.4-18.8-5.4-8.2-4.9-8-2.7-8.3-70.9l-.3-59.8,2.7-3.2c9.4-11.2,25-20.9,36.4-22.7,20.8-3.1,33.4,7.4,37.1,30.9.6,4.4.9,25.4.7,59.2-.4,58-.6,60.1-6.8,65.2-3.1,2.7-9.8,5.1-16.7,6.2-3.9.6-4.3.9-4.3,3.6v2.9h88v-3c0-2.6-.5-3-4.2-4-7.3-1.9-8.2-2.2-12.1-4.2-2.8-1.4-4.5-3.2-6-6.6-2.2-4.6-2.2-5.9-2.8-65.2-.6-57.8-.7-60.9-2.8-68.9-7.2-27.9-24.7-40.7-53-38.8-19.8,1.3-35.1,9.5-50.2,27l-5.9,6.8v-62.4c0-48.8-.3-62.7-1.2-63.4s-3.9-.1-9.8,1.9Z"/>
  <path d="M0,364.6v3.8l9.3,1.2c18.8,2.4,25,5.9,28.3,15.9,1.8,5.5,1.9,10.5,1.9,112.8s-.1,107.3-1.8,112.9c-3.4,11.1-10.4,15.1-28.4,16.3l-9.3.6v7.7h74.9c44.8,0,79-.4,85-1,14.7-1.5,28-5.2,39.9-11.1,8.9-4.3,11.7-6.3,19.1-13.7,14.2-14.2,20.1-28.5,20.1-48.6,0-17.3-5-30.7-16-42.8-10.8-11.9-24-19.1-46.3-25.1l-7.9-2.1,9.9-3.1c26.2-8.4,40.2-21.2,44.9-41.1,2.5-10.7,1.5-29.5-2.1-39.4-8-21.9-26.4-35.7-56.7-42.4-19.1-4.2-27.1-4.6-97.8-4.6H0v3.8ZM123.8,376.8c36.7,4,56.6,21.3,58.8,51.2,2,27.3-11.3,46-38.1,53.4-4.7,1.4-11.9,1.8-34.2,2.2l-28.3.4v-48.9c0-30.7.4-50.2,1.1-52.5,1.5-5.7,4.2-6.7,18.7-6.8,6.7,0,16.6.5,22,1ZM132.5,503.3c15.3,2.3,19.3,3.4,28.5,7.8,20,9.4,30.3,26.9,30.2,50.9,0,11.6-1.3,18-5.7,27.3-9.9,20.8-33,30.5-73,30.8-22.1.2-27.4-1.8-29.6-11-.5-2.1-.9-27.4-.9-56.2v-52.4l20.3.6c11.1.4,24.7,1.3,30.2,2.2Z"/>
  <path d="M479.2,364.5l.3,3.8,8.5,1.2c21.9,3.1,26.5,6.5,29,21.4.6,4.1,1,43.8,1,110.9,0,110.3-.1,112-4.5,118.2-3.9,5.7-12.1,7.5-16.8,3.8-1.6-1.3-3.4-4.5-4.8-8.8-6.2-18.8-14.7-26.3-26.6-23.3-6.5,1.7-10.6,5-13.7,11.3-3,6-3.2,9.4-1.1,16.5,5.3,18,31.6,26.6,60.4,19.8,20.2-4.8,36.8-20.8,44.1-42.5q5.3-15.7,5.9-116c.6-95.1.6-94.5,4.2-101.7,1.8-3.4,9.8-7.1,19.3-8.8,4.9-.8,10.2-1.5,11.7-1.5,2.7,0,2.9-.3,2.9-4v-4h-120.1l.3,3.7Z"/>
  <path d="M681,445.5c-34.7,4-63.7,28.5-74,62.8-3.6,11.8-4.4,18.1-4.4,33.5-.1,28.8,6.8,48.3,24.3,68.9,9.8,11.5,27.6,22.4,43.6,26.7,9.8,2.6,34.9,2.6,45,0,30.4-8,55.5-33,65-64.7,3.7-12.3,4.8-22.5,4.2-38.8-.6-17.4-2.7-26.5-9.2-39.6-10.1-20.7-29.9-38.2-51-44.9-11.9-3.7-30.2-5.4-43.5-3.9ZM707,460.4c23.9,11.3,38.9,42.9,40.7,85.9,1.2,30.8-5,54-18.3,68.4-18.5,20-50.5,17.7-66.2-4.8-13.3-18.9-21.5-45.7-23.1-75.2-1.5-29.6,2.4-46.9,14.3-61.9,4.9-6.3,10-10.1,18.3-13.6,5.2-2.2,6.9-2.4,16.8-2.1,9.8.3,11.8.7,17.5,3.3Z"/>
  <path d="M259,451.8c0,2.4.5,3.1,2.8,3.6,7,1.5,11.5,4,15,8,2.6,3,13.8,25.6,38.6,78,19.2,40.6,35.8,76.5,36.8,79.8,2.3,7.2,1.7,11.1-3.9,26.6-7.8,21.9-17.5,37.2-26.5,42l-4.7,2.4-7.8-2.3c-14.6-4.4-17.7-5.1-24.4-5.1-5.2,0-7.3.5-10,2.3-7.1,4.7-10.1,12.6-8,20.7,1.7,6.5,5.8,11,13.6,15,6.4,3.3,7.3,3.5,16.4,3.4,7.5,0,10.7-.5,15-2.2,16-6.7,27.7-20.2,41.1-47.7,8.1-16.6,5.6-10.3,46.4-118.4,17.9-47.5,33.8-88.6,35.3-91.3,3.3-6.1,7.1-9.4,12.3-10.8,3.5-.9,4-1.4,4-4v-3h-56v2.9c0,2.7.3,2.9,4.8,3.5,10,1.4,15.2,4.8,15.2,10,.1,2.4-41.2,120.6-42.1,120.6-1.3,0-50-108.9-51.1-114.3-2.2-10.4,1.1-13.9,15-15.9,8.1-1.1,8.2-1.2,8.2-4v-2.8h-86v3Z"/>
  <path d="M31.6,699c.4,1.3,4.1,9.5,8.3,18.3,43.2,90.1,114.1,166.2,202.2,217,62.7,36.2,134.6,58.6,206.9,64.5,17.3,1.4,65.7,1.5,82.5.1,143-12,273.4-84.3,359.9-199.6,21.8-29,43.5-65.9,57-96.8l2.5-5.7h-38.4l-6.4,12.7c-36.6,73.7-98.1,141.1-169.6,185.5-37.9,23.6-78.4,41.5-120.5,53.2-68.1,19-138.7,22.2-209.3,9.6-65.4-11.7-129.5-38.6-184.2-77.3-40.4-28.5-81.9-70-111.1-110.7-12.9-18-33.8-53.4-40.6-68.7l-1.9-4.3H30.9l.7,2.2Z"/>
</svg>