<?xml version="1.0" encoding="UTF-8"?>
<svg xmlns="http://www.w3.org/2000/svg" viewBox="0 0 120 140" class="h-full w-full"  aria-hidden="true" role="img"><defs><linearGradient id="exp_trader_traderHair" x1="30" x2="92" y1="6" y2="74" gradientUnits="userSpaceOnUse"><stop stop-color="#0e7490"></stop><stop offset="0.45" stop-color="#06051a"></stop><stop offset="1" stop-color="#0b1028"></stop></linearGradient><linearGradient id="exp_trader_traderHairFront" x1="30" x2="90" y1="10" y2="44" gradientUnits="userSpaceOnUse"><stop stop-color="#67e8f9"></stop><stop offset="0.45" stop-color="#22d3ee"></stop><stop offset="1" stop-color="#0e7490"></stop></linearGradient><linearGradient id="exp_trader_traderFace" x1="38" x2="82" y1="22" y2="74" gradientUnits="userSpaceOnUse"><stop stop-color="#ffedd5"></stop><stop offset="0.6" stop-color="#fed7aa"></stop><stop offset="1" stop-color="#fdba74"></stop></linearGradient><linearGradient id="exp_trader_traderEye" x1="46" x2="74" y1="42" y2="62" gradientUnits="userSpaceOnUse"><stop stop-color="#020617"></stop><stop offset="0.45" stop-color="#5b8dff"></stop><stop offset="1" stop-color="#22d3ee"></stop></linearGradient><linearGradient id="exp_trader_traderShirt" x1="32" x2="90" y1="74" y2="130" gradientUnits="userSpaceOnUse"><stop stop-color="#0ea5e9"></stop><stop offset="1" stop-color="#0c1733"></stop></linearGradient></defs><ellipse cx="60" cy="134" rx="30" ry="3.6" fill="#0f172a" opacity="0.22"></ellipse><path d="M18 25 l1.4 -4 1.4 4 4 1.4 -4 1.4 -1.4 4 -1.4 -4 -4 -1.4 z" fill="#d83bff" stroke="#0f172a" stroke-width="0.8" ></path><path d="M96 34 l1.1 -3.2 1.1 3.2 3.2 1.1 -3.2 1.1 -1.1 3.2 -1.1 -3.2 -3.2 -1.1 z" fill="#22d3ee" stroke="#0f172a" stroke-width="0.7" ></path><circle cx="26" cy="54" r="1.8" fill="#67e8f9" ></circle><path d="M48 102 L46 130 L56 130 L58 102 Z" fill="#0b1028" stroke="#0f172a" stroke-width="2.4" stroke-linejoin="round"></path><path d="M62 102 L62 130 L72 130 L74 102 Z" fill="#0b1028" stroke="#0f172a" stroke-width="2.4" stroke-linejoin="round"></path><path d="M48 116 L56 116 M63 116 L72 116" stroke="#38bdf8" stroke-width="1.5" stroke-linecap="round" opacity="0.75"></path><path d="M42 128 L58 128 Q61 130 58 133 L42 133 Q38 131 42 128 Z" fill="#0f172a"></path><path d="M62 128 L78 128 Q82 130 78 133 L62 133 Q59 131 62 128 Z" fill="#0f172a"></path><path d="M47 129 L56 129 M67 129 L76 129" stroke="#e5e7eb" stroke-width="1.1" stroke-linecap="round" opacity="0.7"></path><circle cx="45" cy="130.8" r="1.6" fill="#d83bff" stroke="#0f172a" stroke-width="0.8"></circle><circle cx="52" cy="130.8" r="1.6" fill="#d83bff" stroke="#0f172a" stroke-width="0.8"></circle><circle cx="65" cy="130.8" r="1.6" fill="#d83bff" stroke="#0f172a" stroke-width="0.8"></circle><circle cx="73" cy="130.8" r="1.6" fill="#d83bff" stroke="#0f172a" stroke-width="0.8"></circle><path d="M36 78 Q44 70 52 76 L50 84 Q42 86 36 82 Z" fill="#08111f" stroke="#0f172a" stroke-width="2.2" stroke-linejoin="round"></path><path d="M68 76 Q77 70 84 78 L84 82 Q76 86 70 84 Z" fill="#08111f" stroke="#0f172a" stroke-width="2.2" stroke-linejoin="round"></path><circle cx="41.5" cy="77" r="1.8" fill="#d83bff" stroke="#0f172a" stroke-width="0.8"></circle><circle cx="47.5" cy="77" r="1.8" fill="#d83bff" stroke="#0f172a" stroke-width="0.8"></circle><circle cx="72.5" cy="77" r="1.8" fill="#d83bff" stroke="#0f172a" stroke-width="0.8"></circle><circle cx="78.5" cy="77" r="1.8" fill="#d83bff" stroke="#0f172a" stroke-width="0.8"></circle><path d="M40 76 Q34 100 44 110 L76 110 Q86 100 80 76 Q60 70 40 76 Z" fill="url(#exp_trader_traderShirt)" stroke="#0f172a" stroke-width="2.6" stroke-linejoin="round"></path><path d="M52 76 L60 88 L68 76 Z" fill="rgba(255,255,255,0.04)" stroke="#0f172a" stroke-width="2" stroke-linejoin="round"></path><path d="M58 80 L62 80 L63 100 L60 106 L57 100 Z" fill="#22d3ee" stroke="#0f172a" stroke-width="1.8" stroke-linejoin="round"></path><path d="M44 82 L50 108 M76 82 L70 108" stroke="#08111f" stroke-width="2" stroke-linecap="round" opacity="0.8"></path><path d="M60 88 L60 108" stroke="#0f172a" stroke-width="1.6" stroke-linecap="round" opacity="0.65"></path><rect x="44" y="90" width="9" height="7" rx="1.4" fill="#0f2742" stroke="#0f172a" stroke-width="1.5"></rect><rect x="68" y="88" width="9" height="7" rx="1.4" fill="#0f2742" stroke="#0f172a" stroke-width="1.5"></rect><path d="M46 93 L51 93 M70 91 L75 91" stroke="#38bdf8" stroke-width="1.2" stroke-linecap="round"></path><circle cx="46" cy="99.5" r="1.5" fill="#d83bff" stroke="#0f172a" stroke-width="0.7"></circle><circle cx="50.5" cy="99.7" r="1.5" fill="#d83bff" stroke="#0f172a" stroke-width="0.7"></circle><circle cx="70" cy="98.4" r="1.5" fill="#d83bff" stroke="#0f172a" stroke-width="0.7"></circle><circle cx="74.5" cy="98.2" r="1.5" fill="#d83bff" stroke="#0f172a" stroke-width="0.7"></circle><rect x="70" y="82" width="7" height="4" rx="1" fill="#22d3ee" stroke="#0f172a" stroke-width="1.2"></rect><path d="M50 100 Q60 104 70 100" stroke="#67e8f9" stroke-width="1.6" stroke-linecap="round" opacity="0.7"></path><path d="M40 78 Q30 92 36 104 Q42 108 44 102 L46 90 Q44 82 46 76 Z" fill="url(#exp_trader_traderShirt)" stroke="#0f172a" stroke-width="2.4" stroke-linejoin="round"></path><path d="M35 94 L44 94" stroke="#38bdf8" stroke-width="1.6" stroke-linecap="round"></path><path d="M78 76 Q92 70 96 56 Q92 54 88 60 L82 70 Q78 74 78 78 Z" fill="url(#exp_trader_traderShirt)" stroke="#0f172a" stroke-width="2.4" stroke-linejoin="round"></path><path d="M83 70 L91 62" stroke="#38bdf8" stroke-width="1.6" stroke-linecap="round"></path><g transform="translate(94,56) rotate(-25)"><ellipse cx="0" cy="0" rx="5" ry="4" fill="url(#exp_trader_traderFace)" stroke="#0f172a" stroke-width="1.8"></ellipse><rect x="-1.3" y="-8" width="2.6" height="8" rx="1.2" fill="url(#exp_trader_traderFace)" stroke="#0f172a" stroke-width="1.5"></rect></g><rect x="55" y="70" width="10" height="8" fill="#fdba74" stroke="#0f172a" stroke-width="2"></rect><g><path d="M30 48C30 22 42 8 60 8C78 8 90 22 90 48V72C90 80 84 84 76 81C72 84 48 84 44 81C36 84 30 80 30 72V48Z" fill="url(#exp_trader_traderHair)" stroke="#0f172a" stroke-width="2.4"></path><path d="M28 56C20 52 22 38 30 38M92 56C100 52 98 38 90 38" fill="#0c1733" stroke="#0f172a" stroke-width="2"></path><circle cx="37" cy="31" r="2.5" fill="#d83bff" stroke="#0f172a" stroke-width="1"></circle><circle cx="43" cy="24" r="2.5" fill="#d83bff" stroke="#0f172a" stroke-width="1"></circle><circle cx="51" cy="20" r="2.4" fill="#d83bff" stroke="#0f172a" stroke-width="1"></circle><circle cx="60" cy="19" r="2.4" fill="#d83bff" stroke="#0f172a" stroke-width="1"></circle><circle cx="69" cy="20" r="2.4" fill="#d83bff" stroke="#0f172a" stroke-width="1"></circle><circle cx="80" cy="31" r="2.5" fill="#d83bff" stroke="#0f172a" stroke-width="1"></circle><circle cx="74" cy="24" r="2.5" fill="#d83bff" stroke="#0f172a" stroke-width="1"></circle><circle cx="31" cy="48" r="2.2" fill="#d83bff" stroke="#0f172a" stroke-width="0.9"></circle><circle cx="30" cy="60" r="2" fill="#d83bff" stroke="#0f172a" stroke-width="0.9"></circle><circle cx="32" cy="70" r="1.8" fill="#d83bff" stroke="#0f172a" stroke-width="0.8"></circle><circle cx="89" cy="48" r="2.2" fill="#d83bff" stroke="#0f172a" stroke-width="0.9"></circle><circle cx="90" cy="60" r="2" fill="#d83bff" stroke="#0f172a" stroke-width="0.9"></circle><circle cx="88" cy="70" r="1.8" fill="#d83bff" stroke="#0f172a" stroke-width="0.8"></circle><ellipse cx="60" cy="48" rx="22" ry="24" fill="url(#exp_trader_traderFace)" stroke="#0f172a" stroke-width="2.4"></ellipse><path d="M30 50C32 28 44 14 60 14C72 14 80 22 86 38C76 36 70 28 66 22C62 32 50 38 30 50Z" fill="url(#exp_trader_traderHairFront)" stroke="#0f172a" stroke-width="2.3" stroke-linejoin="round"></path><path d="M40 24C44 20 50 19 56 22C50 28 44 30 36 32C36 28 38 26 40 24Z" fill="#cffafe" opacity="0.55"></path><path d="M42 40 L56 44" stroke="#0f172a" stroke-width="2.8" stroke-linecap="round" fill="none"></path><path d="M64 44 L78 40" stroke="#0f172a" stroke-width="2.8" stroke-linecap="round" fill="none"></path><ellipse cx="50" cy="52" rx="6.4" ry="8" fill="url(#exp_trader_traderEye)" stroke="#0f172a" stroke-width="1.5" ></ellipse><ellipse cx="70" cy="52" rx="6.4" ry="8" fill="url(#exp_trader_traderEye)" stroke="#0f172a" stroke-width="1.5" ></ellipse><g><circle cx="50" cy="52" r="2.6" fill="#0a1330"></circle><circle cx="70" cy="52" r="2.6" fill="#0a1330"></circle><circle cx="48.5" cy="49.5" r="2" fill="#fff"></circle><circle cx="68.5" cy="49.5" r="2" fill="#fff"></circle><circle cx="51.5" cy="54.5" r="1.2" fill="#a5f3fc"></circle><circle cx="71.5" cy="54.5" r="1.2" fill="#a5f3fc"></circle></g><g><path d="M39 47 Q45 44 56 46 L56 52 Q54 60 47 60 Q40 59 39 51 Z" fill="#0a1330" stroke="#0f172a" stroke-width="2.2" stroke-linejoin="round"></path><path d="M64 46 Q75 44 81 47 L81 51 Q80 59 73 60 Q66 60 64 52 Z" fill="#0a1330" stroke="#0f172a" stroke-width="2.2" stroke-linejoin="round"></path><path d="M56 49 Q60 47 64 49" stroke="#0f172a" stroke-width="2.2" stroke-linecap="round" fill="none"></path><path d="M41 48 L31 45" stroke="#0f172a" stroke-width="2" stroke-linecap="round"></path><path d="M79 48 L89 45" stroke="#0f172a" stroke-width="2" stroke-linecap="round"></path><path d="M44 49 L52 47" stroke="#67e8f9" stroke-width="1.8" stroke-linecap="round" opacity="0.9"></path><path d="M68 49 L76 47" stroke="#67e8f9" stroke-width="1.8" stroke-linecap="round" opacity="0.9"></path></g><path d="M59 56 L58 62 L61 62" stroke="#b45309" stroke-width="1.1" stroke-linecap="round" stroke-linejoin="round" opacity="0.55"></path><path d="M53 67 Q59 64 67 66" stroke="#0f172a" stroke-width="2.5" stroke-linecap="round" fill="none"></path><path d="M66 66 L70 63" stroke="#0f172a" stroke-width="2.2" stroke-linecap="round"></path><ellipse cx="44" cy="62" rx="3.4" ry="1.8" fill="#ff3ba8" opacity="0.42"></ellipse><ellipse cx="76" cy="62" rx="3.4" ry="1.8" fill="#ff3ba8" opacity="0.42"></ellipse></g></svg>
