<?xml version="1.0" encoding="UTF-8"?>
<svg xmlns="http://www.w3.org/2000/svg" viewBox="0 0 120 140" class="h-full w-full relative" style="z-index:1" aria-hidden="true" role="img"><defs><linearGradient id="exp_duel_c_fighterHair" x1="30" x2="90" y1="6" y2="60" gradientUnits="userSpaceOnUse"><stop stop-color="#7e3bff"></stop><stop offset="0.5" stop-color="#450a0a"></stop><stop offset="1" stop-color="#0b0606"></stop></linearGradient><linearGradient id="exp_duel_c_fighterHairFront" x1="32" x2="88" y1="8" y2="38" gradientUnits="userSpaceOnUse"><stop stop-color="#a78bff"></stop><stop offset="0.45" stop-color="#d83bff"></stop><stop offset="1" stop-color="#9f1239"></stop></linearGradient><linearGradient id="exp_duel_c_fighterFace" x1="38" x2="82" y1="22" y2="74" gradientUnits="userSpaceOnUse"><stop stop-color="#fde7c2"></stop><stop offset="0.55" stop-color="#f9b27d"></stop><stop offset="1" stop-color="#c2410c"></stop></linearGradient><linearGradient id="exp_duel_c_fighterEye" x1="46" x2="74" y1="42" y2="60" gradientUnits="userSpaceOnUse"><stop stop-color="#020617"></stop><stop offset="0.45" stop-color="#9f1239"></stop><stop offset="1" stop-color="#d83bff"></stop></linearGradient><linearGradient id="exp_duel_c_fighterShirt" x1="32" x2="88" y1="74" y2="120" gradientUnits="userSpaceOnUse"><stop stop-color="#1f2937"></stop><stop offset="1" stop-color="#0b0f1a"></stop></linearGradient></defs><ellipse cx="60" cy="134" rx="34" ry="4" fill="#0f172a" opacity="0.25"></ellipse><path d="M10 60 L24 60" stroke="#0f172a" stroke-width="2.2" stroke-linecap="round" opacity="0.55"></path><path d="M6 76 L22 76" stroke="#0f172a" stroke-width="2.2" stroke-linecap="round" opacity="0.4"></path><path d="M10 92 L22 92" stroke="#0f172a" stroke-width="2.2" stroke-linecap="round" opacity="0.3"></path><path d="M104 60 l1.4 -4 1.4 4 4 1.4 -4 1.4 -1.4 4 -1.4 -4 -4 -1.4 z" fill="#f43f5e" ></path><path d="M40 102 L34 130 L48 130 L52 106 Z" fill="#0f172a" stroke="#0f172a" stroke-width="2.4" stroke-linejoin="round"></path><ellipse cx="41" cy="131" rx="10" ry="3.2" fill="#0f172a" stroke="#0f172a" stroke-width="2"></ellipse><path d="M64 106 Q72 118 78 130 L92 130 L88 132.5 L74 132.5 Q68 124 60 110 Z" fill="#0f172a" stroke="#0f172a" stroke-width="2.4" stroke-linejoin="round"></path><ellipse cx="84" cy="131" rx="11" ry="3.2" fill="#0f172a" stroke="#0f172a" stroke-width="2"></ellipse><rect x="40" y="98" width="42" height="7" fill="#9f1239" stroke="#0f172a" stroke-width="2.2"></rect><g><path d="M42 74 Q34 96 40 104 L82 104 Q88 96 80 74 Q60 68 42 74 Z" fill="url(#exp_duel_c_fighterShirt)" stroke="#0f172a" stroke-width="2.6" stroke-linejoin="round"></path><path d="M48 74 L52 68" stroke="#0f172a" stroke-width="2.4" stroke-linecap="round"></path><path d="M74 74 L70 68" stroke="#0f172a" stroke-width="2.4" stroke-linecap="round"></path><path d="M44 84 L78 82" stroke="#f43f5e" stroke-width="3" stroke-linecap="round"></path><path d="M52 90 Q60 94 70 90" stroke="#0f172a" stroke-width="1.6" fill="none" opacity="0.55"></path></g><path d="M44 76 Q30 76 32 92 Q34 100 42 96 L46 86 Q48 80 46 76 Z" fill="url(#exp_duel_c_fighterFace)" stroke="#0f172a" stroke-width="2.4" stroke-linejoin="round"></path><path d="M34 94 L42 92" stroke="#9f1239" stroke-width="2" stroke-linecap="round"></path><g transform="translate(38,66)"><circle cx="0" cy="0" r="9" fill="url(#exp_duel_c_fighterFace)" stroke="#0f172a" stroke-width="2.4"></circle><path d="M-6 -2 L6 -2 M-5 2 L5 2" stroke="#0f172a" stroke-width="1.6" stroke-linecap="round"></path><path d="M-9 5 L9 5" stroke="#9f1239" stroke-width="2.4" stroke-linecap="round"></path></g><path d="M76 76 Q92 72 96 86 Q98 96 90 100 L80 94 Q76 86 76 78 Z" fill="url(#exp_duel_c_fighterFace)" stroke="#0f172a" stroke-width="2.4" stroke-linejoin="round"></path><path d="M88 96 L92 88" stroke="#9f1239" stroke-width="2" stroke-linecap="round"></path><g transform="translate(100,92)"><circle cx="0" cy="0" r="11" fill="url(#exp_duel_c_fighterFace)" stroke="#0f172a" stroke-width="2.6"></circle><path d="M-7 -3 L7 -3 M-7 1 L7 1" stroke="#0f172a" stroke-width="1.8" stroke-linecap="round"></path><path d="M-11 6 L11 6" stroke="#9f1239" stroke-width="2.6" stroke-linecap="round"></path></g><rect x="55" y="70" width="10" height="6" fill="#c2410c" stroke="#0f172a" stroke-width="2"></rect><g><path d="M30 48C30 22 42 8 60 8C78 8 90 22 90 48V70C90 78 84 82 76 79C72 82 48 82 44 79C36 82 30 78 30 70V48Z" fill="url(#exp_duel_c_fighterHair)" stroke="#0f172a" stroke-width="2.4"></path><path d="M28 54C20 50 22 36 30 36M92 54C100 50 98 36 90 36" fill="#450a0a" stroke="#0f172a" stroke-width="2"></path><ellipse cx="60" cy="48" rx="22" ry="24" fill="url(#exp_duel_c_fighterFace)" stroke="#0f172a" stroke-width="2.4"></ellipse><g><path d="M30 32 L36 14 L42 28 L48 8 L54 26 L60 6 L66 26 L72 8 L78 28 L84 14 L90 32 Q60 22 30 32 Z" fill="url(#exp_duel_c_fighterHairFront)" stroke="#0f172a" stroke-width="2.3" stroke-linejoin="round"></path><path d="M28 38 Q60 28 92 38 L92 46 Q60 36 28 46 Z" fill="#f43f5e" stroke="#0f172a" stroke-width="2.4" stroke-linejoin="round"></path><path d="M88 40 L106 34 L100 46 L110 50 L94 50 Z" fill="#f43f5e" stroke="#0f172a" stroke-width="2" stroke-linejoin="round"></path><circle cx="60" cy="42" r="1.6" fill="rgba(255,255,255,0.04)" stroke="#0f172a" stroke-width="1.2"></circle><path d="M40 44 L46 46 M74 46 L80 44" stroke="#9f1239" stroke-width="1.2" stroke-linecap="round" opacity="0.6"></path></g><path d="M42 50 L56 52" stroke="#0f172a" stroke-width="2.6" stroke-linecap="round"></path><path d="M64 52 L78 50" stroke="#0f172a" stroke-width="2.6" stroke-linecap="round"></path><ellipse cx="50" cy="56" rx="6.4" ry="5.5" fill="url(#exp_duel_c_fighterEye)" stroke="#0f172a" stroke-width="1.5" ></ellipse><ellipse cx="70" cy="56" rx="6.4" ry="5.5" fill="url(#exp_duel_c_fighterEye)" stroke="#0f172a" stroke-width="1.5" ></ellipse><g><circle cx="50" cy="56" r="2.4" fill="#0a1330"></circle><circle cx="70" cy="56" r="2.4" fill="#0a1330"></circle><circle cx="48.4" cy="54" r="1.6" fill="#fff"></circle><circle cx="68.4" cy="54" r="1.6" fill="#fff"></circle><circle cx="52" cy="58" r="1" fill="#d83bff"></circle><circle cx="72" cy="58" r="1" fill="#d83bff"></circle></g><g><path d="M52 66 L68 66" stroke="#0f172a" stroke-width="2.6" stroke-linecap="round"></path><rect x="55" y="67.2" width="10" height="1.8" fill="rgba(255,255,255,0.04)" stroke="#0f172a" stroke-width="0.8"></rect><path d="M40 60 L44 62" stroke="#9f1239" stroke-width="1.4" stroke-linecap="round" opacity="0.7"></path><path d="M76 62 L80 60" stroke="#9f1239" stroke-width="1.4" stroke-linecap="round" opacity="0.7"></path></g></g></svg>
