<?xml version="1.0" encoding="UTF-8"?>
<svg xmlns="http://www.w3.org/2000/svg" viewBox="0 0 120 140" class="h-full w-full"  aria-hidden="true" role="img"><defs><linearGradient id="exp_rapid_rapidFighterHair" x1="30" x2="90" y1="6" y2="60" gradientUnits="userSpaceOnUse"><stop stop-color="#0b1020"></stop><stop offset="0.55" stop-color="#1e293b"></stop><stop offset="1" stop-color="#0b1020"></stop></linearGradient><linearGradient id="exp_rapid_rapidFighterHairFront" x1="32" x2="88" y1="6" y2="34" gradientUnits="userSpaceOnUse"><stop stop-color="#334155"></stop><stop offset="0.55" stop-color="#1e293b"></stop><stop offset="1" stop-color="#0b1020"></stop></linearGradient><linearGradient id="exp_rapid_rapidFighterFace" x1="38" x2="82" y1="22" y2="74" gradientUnits="userSpaceOnUse"><stop stop-color="#fde7c2"></stop><stop offset="0.55" stop-color="#f9b27d"></stop><stop offset="1" stop-color="#c2410c"></stop></linearGradient><linearGradient id="exp_rapid_rapidFighterJersey" x1="32" x2="88" y1="68" y2="120" gradientUnits="userSpaceOnUse"><stop stop-color="#0b1020"></stop><stop offset="0.5" stop-color="#1e293b"></stop><stop offset="1" stop-color="#020617"></stop></linearGradient><linearGradient id="exp_rapid_rapidFighterVisor" x1="30" x2="90" y1="46" y2="62" gradientUnits="userSpaceOnUse"><stop stop-color="#0b1020"></stop><stop offset="0.55" stop-color="#1e293b"></stop><stop offset="1" stop-color="#0b1020"></stop></linearGradient><linearGradient id="exp_rapid_rapidFighterShorts" x1="32" x2="88" y1="100" y2="118" gradientUnits="userSpaceOnUse"><stop stop-color="#7a0f3f"></stop><stop offset="1" stop-color="#0b1020"></stop></linearGradient></defs><ellipse cx="60" cy="134" rx="36" ry="4" fill="#0f172a" opacity="0.25"></ellipse><path d="M8 56 L24 56" stroke="#0f172a" stroke-width="2.2" stroke-linecap="round" opacity="0.6"></path><path d="M4 70 L22 70" stroke="#0f172a" stroke-width="2.2" stroke-linecap="round" opacity="0.45"></path><path d="M8 84 L22 84" stroke="#0f172a" stroke-width="2.2" stroke-linecap="round" opacity="0.3"></path><path d="M104 50 l1.4 -4 1.4 4 4 1.4 -4 1.4 -1.4 4 -1.4 -4 -4 -1.4 z" fill="#FF4D9E" ></path><path d="M38 102 L30 130 L46 132 L50 106 Z" fill="url(#exp_rapid_rapidFighterShorts)" stroke="#0f172a" stroke-width="2.4" stroke-linejoin="round"></path><path d="M28 130 L48 132 L46 135 L28 134 Z" fill="#0f172a" stroke="#0f172a" stroke-width="2" stroke-linejoin="round"></path><path d="M30 132 L40 133" stroke="#FF4D9E" stroke-width="1.6" stroke-linecap="round"></path><path d="M70 106 L74 132 L90 130 L82 102 Z" fill="url(#exp_rapid_rapidFighterShorts)" stroke="#0f172a" stroke-width="2.4" stroke-linejoin="round"></path><path d="M72 132 L92 130 L92 134 L74 135 Z" fill="#0f172a" stroke="#0f172a" stroke-width="2" stroke-linejoin="round"></path><path d="M80 132 L90 131" stroke="#FF4D9E" stroke-width="1.6" stroke-linecap="round"></path><rect x="40" y="100" width="42" height="5" fill="#0a1330" stroke="#0f172a" stroke-width="2.2"></rect><rect x="42" y="101" width="38" height="1.5" fill="#FF4D9E" opacity="0.85"></rect><path d="M40 70 Q34 96 40 104 L82 104 Q88 96 82 70 Q60 64 40 70 Z" fill="url(#exp_rapid_rapidFighterJersey)" stroke="#0f172a" stroke-width="2.6" stroke-linejoin="round"></path><path d="M44 70 L48 74" stroke="#0f172a" stroke-width="2" stroke-linecap="round"></path><path d="M76 70 L72 74" stroke="#0f172a" stroke-width="2" stroke-linecap="round"></path><path d="M55 66 L60 76 L65 66" fill="none" stroke="#0f172a" stroke-width="2" stroke-linejoin="round"></path><path d="M60 68 L60 76" stroke="#FF4D9E" stroke-width="1.6" stroke-linecap="round"></path><path d="M62 78 L52 92 L60 92 L56 102 L70 86 L62 86 Z" fill="#FF4D9E" stroke="#0f172a" stroke-width="1.8" stroke-linejoin="round"></path><path d="M40 100 L82 100" stroke="#FF4D9E" stroke-width="2.2" stroke-linecap="round" opacity="0.85"></path><path d="M40 70 Q28 76 30 84 Q34 70 42 60 Q48 60 46 70 Z" fill="url(#exp_rapid_rapidFighterFace)" stroke="#0f172a" stroke-width="2.4" stroke-linejoin="round"></path><g transform="translate(40,52)"><circle cx="0" cy="0" r="8.5" fill="url(#exp_rapid_rapidFighterFace)" stroke="#0f172a" stroke-width="2.4"></circle><path d="M-7 -2 L7 -2" stroke="rgba(255,255,255,0.04)" stroke-width="1.6" stroke-linecap="round"></path><path d="M-7 2 L7 2" stroke="rgba(255,255,255,0.04)" stroke-width="1.6" stroke-linecap="round"></path><path d="M-8 6 L8 6" stroke="#FF4D9E" stroke-width="2" stroke-linecap="round"></path></g><path d="M82 70 Q94 76 90 84 Q86 70 78 60 Q72 60 74 70 Z" fill="url(#exp_rapid_rapidFighterFace)" stroke="#0f172a" stroke-width="2.4" stroke-linejoin="round"></path><g transform="translate(80,52)"><circle cx="0" cy="0" r="8.5" fill="url(#exp_rapid_rapidFighterFace)" stroke="#0f172a" stroke-width="2.4"></circle><path d="M-7 -2 L7 -2" stroke="rgba(255,255,255,0.04)" stroke-width="1.6" stroke-linecap="round"></path><path d="M-7 2 L7 2" stroke="rgba(255,255,255,0.04)" stroke-width="1.6" stroke-linecap="round"></path><path d="M-8 6 L8 6" stroke="#FF4D9E" stroke-width="2" stroke-linecap="round"></path></g><rect x="55" y="66" width="10" height="6" fill="#c2410c" stroke="#0f172a" stroke-width="2"></rect><g><path d="M30 46 C30 22 42 8 60 8 C78 8 90 22 90 46 V68 C90 74 86 76 80 73 C74 76 46 76 40 73 C34 76 30 74 30 68 V46 Z" fill="url(#exp_rapid_rapidFighterHair)" stroke="#0f172a" stroke-width="2.4"></path><ellipse cx="60" cy="46" rx="22" ry="24" fill="url(#exp_rapid_rapidFighterFace)" stroke="#0f172a" stroke-width="2.4"></ellipse><path d="M34 30 L42 14 L52 26 L62 12 L72 26 L82 14 L88 30 L86 36 Q60 24 34 36 Z" fill="url(#exp_rapid_rapidFighterHairFront)" stroke="#0f172a" stroke-width="2.4" stroke-linejoin="round"></path><path d="M28 38 Q60 30 92 38" stroke="#0f172a" stroke-width="2" stroke-linecap="round" fill="none" opacity="0.7"></path><path d="M40 46 L54 47" stroke="#0f172a" stroke-width="2.4" stroke-linecap="round"></path><path d="M66 47 L80 46" stroke="#0f172a" stroke-width="2.4" stroke-linecap="round"></path><path d="M28 50 Q60 44 92 50 L92 60 Q60 56 28 60 Z" fill="url(#exp_rapid_rapidFighterVisor)" stroke="#0f172a" stroke-width="2.4" stroke-linejoin="round"></path><path d="M32 51 Q60 47 88 51" stroke="#475569" stroke-width="1.4" stroke-linecap="round" fill="none" opacity="0.85"></path><g><rect x="40" y="54" width="14" height="2.4" rx="1.2" fill="#FF4D9E" style="filter:drop-shadow(0 0 4px #FF4D9E)"></rect><rect x="66" y="54" width="14" height="2.4" rx="1.2" fill="#FF4D9E" style="filter:drop-shadow(0 0 4px #FF4D9E)"></rect></g><path d="M28 54 L24 56" stroke="#0f172a" stroke-width="2.2" stroke-linecap="round"></path><path d="M92 54 L96 56" stroke="#0f172a" stroke-width="2.2" stroke-linecap="round"></path><path d="M92 60 L97 58 L94 62 L98 60 L93 68 L91 64 L93 62 Z" fill="#FF4D9E" stroke="#0f172a" stroke-width="1.4" stroke-linejoin="round"></path><path d="M40 64 L46 66" stroke="#7a0f3f" stroke-width="1.8" stroke-linecap="round" opacity="0.55"></path><path d="M80 64 L74 66" stroke="#7a0f3f" stroke-width="1.8" stroke-linecap="round" opacity="0.55"></path><path d="M52 68 L68 68" stroke="#0f172a" stroke-width="2.4" stroke-linecap="round"></path><rect x="55" y="69" width="10" height="1.6" fill="rgba(255,255,255,0.04)" stroke="#0f172a" stroke-width="0.8"></rect><path d="M48 70 L52 72" stroke="#0f172a" stroke-width="1.6" stroke-linecap="round" opacity="0.55"></path><path d="M72 70 L68 72" stroke="#0f172a" stroke-width="1.6" stroke-linecap="round" opacity="0.55"></path></g></svg>
