<?xml version="1.0" encoding="UTF-8"?>
<svg xmlns="http://www.w3.org/2000/svg" viewBox="0 -8 120 148" class="h-full w-full"  aria-hidden="true" role="img"><defs><linearGradient id="sq2_explorerHair" x1="30" x2="90" y1="6" y2="60" gradientUnits="userSpaceOnUse"><stop stop-color="#365314"></stop><stop offset="0.5" stop-color="#3f6212"></stop><stop offset="1" stop-color="#1c1917"></stop></linearGradient><linearGradient id="sq2_explorerHairFront" x1="32" x2="90" y1="10" y2="40" gradientUnits="userSpaceOnUse"><stop stop-color="#d9f99d"></stop><stop offset="0.45" stop-color="#a78bff"></stop><stop offset="1" stop-color="#65a30d"></stop></linearGradient><linearGradient id="sq2_explorerFace" x1="38" x2="82" y1="22" y2="74" gradientUnits="userSpaceOnUse"><stop stop-color="#fde7c2"></stop><stop offset="0.55" stop-color="#fbbf77"></stop><stop offset="1" stop-color="#d97706"></stop></linearGradient><linearGradient id="sq2_explorerEye" x1="46" x2="74" y1="42" y2="62" gradientUnits="userSpaceOnUse"><stop stop-color="#1c1917"></stop><stop offset="0.45" stop-color="#b45309"></stop><stop offset="1" stop-color="#d83bff"></stop></linearGradient><linearGradient id="sq2_explorerShirt" x1="32" x2="88" y1="74" y2="130" gradientUnits="userSpaceOnUse"><stop stop-color="#9f1239"></stop><stop offset="1" stop-color="#1a2e05"></stop></linearGradient><linearGradient id="sq2_explorerVestDark" x1="34" x2="86" y1="74" y2="114" gradientUnits="userSpaceOnUse"><stop stop-color="#365314"></stop><stop offset="1" stop-color="#111827"></stop></linearGradient></defs><ellipse cx="60" cy="134" rx="36" ry="4" fill="#0f172a" opacity="0.24"></ellipse><path d="M64 124 Q74 118 88 122 Q92 130 86 132 L64 132 Z" fill="#94a3b8" stroke="#0f172a" stroke-width="2.2" stroke-linejoin="round"></path><path d="M72 124 L76 121 M80 126 L84 123" stroke="#0f172a" stroke-width="1.3" stroke-linecap="round"></path><path d="M16 18 l1.2 -3.5 1.2 3.5 3.5 1.2 -3.5 1.2 -1.2 3.5 -1.2 -3.5 -3.5 -1.2 z" fill="#d83bff" ></path><circle cx="100" cy="22" r="1.6" fill="#fff" ></circle><path d="M31 78 Q24 98 29 116 L48 116 L47 75 Q38 74 31 78 Z" fill="#854d0e" stroke="#0f172a" stroke-width="2.4" stroke-linejoin="round"></path><path d="M31 83 Q37 78 47 80" stroke="#d83bff" stroke-width="2" stroke-linecap="round" opacity="0.65"></path><rect x="31.5" y="88" width="13" height="10" rx="2" fill="#d83bff" stroke="#0f172a" stroke-width="2"></rect><path d="M34 103 L45 103" stroke="#0f172a" stroke-width="1.6" stroke-linecap="round" opacity="0.55"></path><path d="M44 102 L42 130 L54 130 L56 102 Z" fill="#854d0e" stroke="#0f172a" stroke-width="2.4" stroke-linejoin="round"></path><path d="M43 114 L55 114" stroke="#0f172a" stroke-width="1.6" stroke-linecap="round" opacity="0.55"></path><rect x="46" y="108" width="7" height="7" rx="1.5" fill="#7e3bff" stroke="#0f172a" stroke-width="1.4"></rect><path d="M38 129 L60 129 L61 132.5 L39 132.5 Z" fill="#0f172a"></path><path d="M43 127 L55 127" stroke="#e5e7eb" stroke-width="1.2" stroke-linecap="round" opacity="0.7"></path><path d="M62 102 Q70 114 78 122 L86 124 L82 128 L72 124 L60 106 Z" fill="#854d0e" stroke="#0f172a" stroke-width="2.4" stroke-linejoin="round"></path><path d="M70 113 L80 121" stroke="#0f172a" stroke-width="1.6" stroke-linecap="round" opacity="0.5"></path><path d="M74 121 L90 121 L94 126 L78 129 Z" fill="#0f172a" stroke="#0f172a" stroke-width="1.8" stroke-linejoin="round"></path><path d="M79 123 L90 123" stroke="#e5e7eb" stroke-width="1.2" stroke-linecap="round" opacity="0.7"></path><path d="M37 78 Q42 70 52 75 L50 84 Q42 86 37 82 Z" fill="#111827" stroke="#0f172a" stroke-width="2.2" stroke-linejoin="round"></path><path d="M68 75 Q78 70 82 78 L82 82 Q76 86 70 84 Z" fill="#111827" stroke="#0f172a" stroke-width="2.2" stroke-linejoin="round"></path><path d="M39 76 Q32 101 43 113 L75 113 Q84 101 79 76 Q60 68 39 76 Z" fill="url(#sq2_explorerVestDark)" stroke="#0f172a" stroke-width="2.6" stroke-linejoin="round"></path><path d="M41 78 Q38 96 45 111 L53 111 L54 77 Z" fill="#9f1239" opacity="0.95"></path><path d="M67 77 L73 112 Q80 101 77 78 Z" fill="#fb7185" opacity="0.85"></path><path d="M54 76 L58 92 L60 108 L62 92 L66 76 Z" fill="rgba(255,255,255,0.04)" stroke="#0f172a" stroke-width="2" stroke-linejoin="round"></path><path d="M59 82 L59 106" stroke="#0f172a" stroke-width="1.5" stroke-linecap="round" opacity="0.65"></path><rect x="66" y="86" width="8" height="6" rx="1.5" fill="#fb7185" stroke="#0f172a" stroke-width="1.4"></rect><path d="M43 92 L52 92 M44 100 L52 100" stroke="#0f172a" stroke-width="1.4" stroke-linecap="round" opacity="0.55"></path><path d="M51 76 L48 110" stroke="#7e3bff" stroke-width="3.2" stroke-linecap="round"></path><rect x="46" y="91" width="5" height="5" rx="1" fill="#d83bff" stroke="#0f172a" stroke-width="1.2"></rect><line x1="60" y1="86" x2="58" y2="98" stroke="#0f172a" stroke-width="1.4"></line><circle cx="58" cy="100" r="4.5" fill="#fb7185" stroke="#0f172a" stroke-width="2"></circle><path d="M58 98 L58 102 M56 100 L60 100" stroke="#0f172a" stroke-width="1.2" stroke-linecap="round"></path><path d="M72 78 Q82 92 76 106 Q70 110 68 104 L68 92 Q70 84 68 78 Z" fill="url(#sq2_explorerShirt)" stroke="#0f172a" stroke-width="2.4" stroke-linejoin="round"></path><path d="M70 90 L78 88" stroke="#0f172a" stroke-width="1.5" stroke-linecap="round" opacity="0.45"></path><circle cx="74" cy="106" r="4.5" fill="#0f172a" stroke="#0f172a" stroke-width="2"></circle><path d="M71 104 L77 104" stroke="#e5e7eb" stroke-width="1.1" stroke-linecap="round" opacity="0.65"></path><path d="M44 78 Q34 66 38 54 Q44 52 46 60 L50 72 Q48 76 44 78 Z" fill="url(#sq2_explorerShirt)" stroke="#0f172a" stroke-width="2.4" stroke-linejoin="round"></path><path d="M38 58 L47 56" stroke="#d83bff" stroke-width="1.7" stroke-linecap="round"></path><path d="M40 38 Q34 24 50 22 Q62 22 64 28 L62 36 Q52 36 44 40 Z" fill="url(#sq2_explorerFace)" stroke="#0f172a" stroke-width="2.2" stroke-linejoin="round"></path><path d="M48 26 L48 32 M53 24 L53 30 M58 26 L58 32" stroke="#0f172a" stroke-width="1.2" stroke-linecap="round"></path><path d="M47 72 Q60 82 73 72 L70 82 Q60 88 50 82 Z" fill="#111827" stroke="#0f172a" stroke-width="2.2" stroke-linejoin="round"></path><path d="M68 75 L86 82 L76 91 L66 82 Z" fill="#fb7185" stroke="#0f172a" stroke-width="2" stroke-linejoin="round"></path><path d="M50 78 L39 88 L53 89 L58 82 Z" fill="#1f2937" stroke="#0f172a" stroke-width="2" stroke-linejoin="round"></path><rect x="55" y="70" width="10" height="8" fill="#d97706" stroke="#0f172a" stroke-width="2"></rect><g><path d="M30 50C30 24 42 10 60 10C78 10 90 24 90 50V72C90 80 84 84 76 81C72 84 48 84 44 81C36 84 30 80 30 72V50Z" fill="url(#sq2_explorerHair)" stroke="#0f172a" stroke-width="2.4"></path><path d="M28 56C20 52 22 38 30 38M92 56C100 52 98 38 90 38" fill="#3f6212" stroke="#0f172a" stroke-width="2"></path><ellipse cx="60" cy="50" rx="22" ry="24" fill="url(#sq2_explorerFace)" stroke="#0f172a" stroke-width="2.4"></ellipse><path d="M30 50C30 28 40 12 60 12C74 12 84 22 88 36C80 32 74 26 70 20C66 30 56 36 30 50Z" fill="url(#sq2_explorerHairFront)" stroke="#0f172a" stroke-width="2.3" stroke-linejoin="round"></path><path d="M34 39 Q60 32 86 39 L86 46 Q60 40 34 46 Z" fill="#111827" stroke="#0f172a" stroke-width="2" stroke-linejoin="round"></path><path d="M42 41 Q60 36 78 41" stroke="#fb7185" stroke-width="2" stroke-linecap="round"></path><path d="M44 18 L40 -2 L50 14 Z" fill="url(#sq2_explorerHairFront)" stroke="#0f172a" stroke-width="2" stroke-linejoin="round"></path><path d="M68.5 16 L74 -4 L77.5 16 Z" fill="url(#sq2_explorerHairFront)" stroke="#0f172a" stroke-width="2" stroke-linejoin="round"></path><path d="M40 26C44 22 52 22 58 24C50 30 44 32 36 34C36 30 38 28 40 26Z" fill="#ecfccb" opacity="0.55"></path><path d="M74 23 Q80 28 84 36" stroke="#1a2e05" stroke-width="2" stroke-linecap="round" opacity="0.65"></path><path d="M43 47 L56 45" stroke="#0f172a" stroke-width="2.5" stroke-linecap="round" fill="none"></path><path d="M64 45 L77 47" stroke="#0f172a" stroke-width="2.5" stroke-linecap="round" fill="none"></path><ellipse cx="50" cy="55" rx="7" ry="7.4" fill="url(#sq2_explorerEye)" stroke="#0f172a" stroke-width="1.5" ></ellipse><ellipse cx="70" cy="55" rx="7" ry="7.4" fill="url(#sq2_explorerEye)" stroke="#0f172a" stroke-width="1.5" ></ellipse><g><circle cx="50" cy="55" r="3" fill="#0a1330"></circle><circle cx="70" cy="55" r="3" fill="#0a1330"></circle><circle cx="48.5" cy="51" r="2.4" fill="#fff"></circle><circle cx="68.5" cy="51" r="2.4" fill="#fff"></circle><circle cx="52" cy="57" r="1.4" fill="#f0d8ff"></circle><circle cx="72" cy="57" r="1.4" fill="#f0d8ff"></circle></g><path d="M54 64 Q60 70 68 63" stroke="#0f172a" stroke-width="2.2" stroke-linecap="round" fill="none"></path><path d="M58 67 Q61 69 64 66" stroke="rgba(255,255,255,0.04)" stroke-width="1.4" stroke-linecap="round" opacity="0.9"></path><path d="M39 62 L45 60" stroke="#ff3ba8" stroke-width="1.6" stroke-linecap="round" opacity="0.65"></path><path d="M75 60 L81 62" stroke="#ff3ba8" stroke-width="1.6" stroke-linecap="round" opacity="0.65"></path></g></svg>
