<?xml version="1.0" encoding="UTF-8"?>
<svg xmlns="http://www.w3.org/2000/svg" viewBox="0 0 120 140" class="h-full w-full"  aria-hidden="true" role="img"><defs><linearGradient id="sq5_rivalHair" x1="30" x2="92" y1="6" y2="74" gradientUnits="userSpaceOnUse"><stop stop-color="#581c87"></stop><stop offset="0.45" stop-color="#3b0764"></stop><stop offset="1" stop-color="#1e1b4b"></stop></linearGradient><linearGradient id="sq5_rivalHairFront" x1="32" x2="88" y1="8" y2="42" gradientUnits="userSpaceOnUse"><stop stop-color="#f5d0fe"></stop><stop offset="0.45" stop-color="#d946ef"></stop><stop offset="1" stop-color="#86198f"></stop></linearGradient><linearGradient id="sq5_rivalPony" x1="84" x2="108" y1="32" y2="120" gradientUnits="userSpaceOnUse"><stop stop-color="#a21caf"></stop><stop offset="0.45" stop-color="#6b21a8"></stop><stop offset="1" stop-color="#1e1b4b"></stop></linearGradient><linearGradient id="sq5_rivalFace" x1="38" x2="82" y1="22" y2="74" gradientUnits="userSpaceOnUse"><stop stop-color="#fde7c2"></stop><stop offset="0.55" stop-color="#fbbf77"></stop><stop offset="1" stop-color="#c2410c"></stop></linearGradient><linearGradient id="sq5_rivalEye" x1="46" x2="74" y1="42" y2="60" gradientUnits="userSpaceOnUse"><stop stop-color="#1e1b4b"></stop><stop offset="0.45" stop-color="#86198f"></stop><stop offset="1" stop-color="#f0abfc"></stop></linearGradient><linearGradient id="sq5_rivalShirt" x1="32" x2="88" y1="74" y2="120" gradientUnits="userSpaceOnUse"><stop stop-color="#d946ef"></stop><stop offset="1" stop-color="#3b0764"></stop></linearGradient></defs><ellipse cx="60" cy="134" rx="34" ry="4" fill="#0f172a" opacity="0.25"></ellipse><path d="M14 26 q3 -4 6 0 q3 4 6 0 q3 -4 6 0" stroke="#d946ef" stroke-width="2" fill="none" stroke-linecap="round" opacity="0.55"></path><path d="M10 64 l1.4 -4 1.4 4 4 1.4 -4 1.4 -1.4 4 -1.4 -4 -4 -1.4 z" fill="#d946ef" ></path><circle cx="106" cy="60" r="1.6" fill="#fff" ></circle><path d="M44 106 L42 130 L52 130 L52 106 Z" fill="#0f172a" stroke="#0f172a" stroke-width="2.4" stroke-linejoin="round"></path><ellipse cx="47" cy="131" rx="9" ry="3.2" fill="#0f172a" stroke="#0f172a" stroke-width="2"></ellipse><path d="M64 106 L66 130 L78 130 L74 106 Z" fill="#0f172a" stroke="#0f172a" stroke-width="2.4" stroke-linejoin="round"></path><ellipse cx="72" cy="131" rx="9" ry="3.2" fill="#0f172a" stroke="#0f172a" stroke-width="2"></ellipse><path d="M44 118 L52 118" stroke="#d946ef" stroke-width="2" stroke-linecap="round"></path><path d="M65 118 L75 118" stroke="#d946ef" stroke-width="2" stroke-linecap="round"></path><path d="M40 96 L80 96 L78 108 L42 108 Z" fill="#7e22ce" stroke="#0f172a" stroke-width="2.4" stroke-linejoin="round"></path><path d="M60 99 L64 102 L60 105 L56 102 Z" fill="#d946ef" stroke="#0f172a" stroke-width="1.6" stroke-linejoin="round"></path><path d="M42 76 Q36 92 42 98 L78 98 Q84 92 78 76 Q60 70 42 76 Z" fill="url(#sq5_rivalShirt)" stroke="#0f172a" stroke-width="2.6" stroke-linejoin="round"></path><path d="M44 78 L76 92" stroke="#0f172a" stroke-width="2.4" stroke-linecap="round"></path><path d="M76 78 L44 92" stroke="#0f172a" stroke-width="2.4" stroke-linecap="round"></path><path d="M60 81 L63 85 L60 89 L57 85 Z" fill="#d946ef" stroke="#0f172a" stroke-width="1.4" stroke-linejoin="round"></path><path d="M44 76 Q30 82 22 94 Q24 100 30 96 Q40 88 46 78 Z" fill="url(#sq5_rivalShirt)" stroke="#0f172a" stroke-width="2.4" stroke-linejoin="round"></path><g transform="translate(22,94)"><path d="M3 -4.4 L7 4.4" stroke="#d946ef" stroke-width="2.4" stroke-linecap="round"></path><ellipse cx="0" cy="0" rx="5" ry="4.2" fill="url(#sq5_rivalFace)" stroke="#0f172a" stroke-width="2.2"></ellipse><rect x="-12" y="-1.6" width="9" height="3.2" rx="1.4" fill="url(#sq5_rivalFace)" stroke="#0f172a" stroke-width="1.6"></rect><ellipse cx="-12" cy="0" rx="1.6" ry="1.4" fill="#d946ef" stroke="#0f172a" stroke-width="1"></ellipse></g><path d="M76 76 Q86 82 88 94 Q86 100 80 96 Q74 88 74 78 Z" fill="url(#sq5_rivalShirt)" stroke="#0f172a" stroke-width="2.4" stroke-linejoin="round"></path><g transform="translate(82,98)"><circle cx="0" cy="0" r="6.5" fill="url(#sq5_rivalFace)" stroke="#0f172a" stroke-width="2.4"></circle><path d="M-4.5 -2 L4.5 -2 M-4.5 1.5 L4.5 1.5" stroke="#0f172a" stroke-width="1.6" stroke-linecap="round"></path><path d="M-7 4 L7 4" stroke="#d946ef" stroke-width="2.2" stroke-linecap="round"></path></g><rect x="55" y="70" width="10" height="6" fill="#c2410c" stroke="#0f172a" stroke-width="2"></rect><path d="M53 73 L67 73" stroke="#d946ef" stroke-width="2.6" stroke-linecap="round"></path><path d="M58 73 L62 73 L60 76 Z" fill="#d946ef" stroke="#0f172a" stroke-width="1.2" stroke-linejoin="round"></path><g><path d="M82 28 Q108 44 108 86 Q104 120 94 122 Q108 100 102 78 Q96 50 86 36 Z" fill="url(#sq5_rivalPony)" stroke="#0f172a" stroke-width="2.4" stroke-linejoin="round"></path><ellipse cx="86" cy="34" rx="6" ry="4.2" fill="#d946ef" stroke="#0f172a" stroke-width="2"></ellipse><path d="M82 32 L91 32 M82 36 L91 36" stroke="#0f172a" stroke-width="1.2" stroke-linecap="round" opacity="0.55"></path><path d="M28 50C28 24 40 8 60 8C80 8 92 24 92 50V70C92 78 86 82 78 79C72 82 48 82 42 79C34 82 28 78 28 70V50Z" fill="url(#sq5_rivalHair)" stroke="#0f172a" stroke-width="2.4"></path><path d="M26 56C18 52 20 38 28 38M94 56C102 52 100 38 92 38" fill="#3b0764" stroke="#0f172a" stroke-width="2"></path><ellipse cx="60" cy="48" rx="22" ry="24" fill="url(#sq5_rivalFace)" stroke="#0f172a" stroke-width="2.4"></ellipse><path d="M30 48C32 22 44 10 60 10C76 10 86 22 90 38C82 30 74 24 70 18C62 30 50 36 30 48Z" fill="url(#sq5_rivalHairFront)" stroke="#0f172a" stroke-width="2.3" stroke-linejoin="round"></path><path d="M30 36 Q34 52 50 50 Q42 56 32 52 Q28 44 30 36 Z" fill="url(#sq5_rivalHairFront)" stroke="#0f172a" stroke-width="2.2" stroke-linejoin="round"></path><path d="M48 18C54 14 64 14 70 16C62 24 54 24 46 26C46 22 46 20 48 18Z" fill="#fae8ff" opacity="0.55"></path><path d="M96 56 l1.2 -2.6 1.2 2.6 2.6 1 -2.6 1 -1.2 2.6 -1.2 -2.6 -2.6 -1 z" fill="#d946ef" stroke="#0f172a" stroke-width="1.4" ></path><path d="M44 46 L56 50" stroke="#0f172a" stroke-width="2.8" stroke-linecap="round"></path><path d="M64 50 L76 46" stroke="#0f172a" stroke-width="2.8" stroke-linecap="round"></path><ellipse cx="50" cy="56" rx="6" ry="4.6" fill="url(#sq5_rivalEye)" stroke="#0f172a" stroke-width="1.5" ></ellipse><ellipse cx="70" cy="56" rx="6" ry="4.6" fill="url(#sq5_rivalEye)" stroke="#0f172a" stroke-width="1.5" ></ellipse><path d="M44 54 L41 53 M44 56 L41 57.5" stroke="#0f172a" stroke-width="1.6" stroke-linecap="round"></path><path d="M76 54 L79 53 M76 56 L79 57.5" stroke="#0f172a" stroke-width="1.6" stroke-linecap="round"></path><g><circle cx="50" cy="56" r="2.4" fill="#0a1330"></circle><circle cx="70" cy="56" r="2.4" fill="#0a1330"></circle><circle cx="48.4" cy="54.5" r="1.5" fill="#fff"></circle><circle cx="68.4" cy="54.5" r="1.5" fill="#fff"></circle><circle cx="52" cy="58" r="1" fill="#f0abfc"></circle><circle cx="72" cy="58" r="1" fill="#f0abfc"></circle></g><path d="M52 65 Q60 71 68 65 Q60 67 52 65 Z" fill="#0f172a" stroke="#0f172a" stroke-width="1.4" stroke-linejoin="round"></path><rect x="54" y="65.4" width="12" height="1.6" fill="rgba(255,255,255,0.04)"></rect><path d="M62 67 L63.5 70 L65 67 Z" fill="rgba(255,255,255,0.04)" stroke="#0f172a" stroke-width="0.8" stroke-linejoin="round"></path><path d="M52 65 Q60 63 68 65" stroke="#d946ef" stroke-width="1.6" stroke-linecap="round" fill="none" opacity="0.85"></path><path d="M40 60 L44 62" stroke="#d946ef" stroke-width="1.4" stroke-linecap="round" opacity="0.8"></path><path d="M76 62 L80 60" stroke="#d946ef" stroke-width="1.4" stroke-linecap="round" opacity="0.8"></path></g></svg>
