<?xml version="1.0" encoding="UTF-8"?>
<svg xmlns="http://www.w3.org/2000/svg" viewBox="0 0 120 140" class="block" style="width:120px; height:140px" aria-hidden="true" role="img"><defs><linearGradient id="b11_hair" x1="28" x2="92" y1="8" y2="72" gradientUnits="userSpaceOnUse"><stop stop-color="#134e4a"></stop><stop offset="0.5" stop-color="#0f766e"></stop><stop offset="1" stop-color="#042f2e"></stop></linearGradient><linearGradient id="b11_hairFront" x1="32" x2="88" y1="12" y2="44" gradientUnits="userSpaceOnUse"><stop stop-color="#99f6e4"></stop><stop offset="0.5" stop-color="#06b6d4"></stop><stop offset="1" stop-color="#0f766e"></stop></linearGradient><linearGradient id="b11_face" x1="38" x2="82" y1="22" y2="74" gradientUnits="userSpaceOnUse"><stop stop-color="#ffedd5"></stop><stop offset="0.55" stop-color="#fdba74"></stop><stop offset="1" stop-color="#ea580c"></stop></linearGradient><linearGradient id="b11_eye" x1="46" x2="74" y1="42" y2="62" gradientUnits="userSpaceOnUse"><stop stop-color="#020617"></stop><stop offset="0.45" stop-color="#0f766e"></stop><stop offset="1" stop-color="#06b6d4"></stop></linearGradient><linearGradient id="b11_coat" x1="34" x2="86" y1="76" y2="120" gradientUnits="userSpaceOnUse"><stop stop-color="#f8fafc"></stop><stop offset="1" stop-color="#cbd5e1"></stop></linearGradient><linearGradient id="b11_flask" x1="20" x2="40" y1="78" y2="100" gradientUnits="userSpaceOnUse"><stop stop-color="#67e8f9"></stop><stop offset="1" stop-color="#06b6d4"></stop></linearGradient></defs><g opacity="0.78"><g transform="translate(14,24)"><ellipse cx="0" cy="0" rx="8" ry="3" fill="none" stroke="#06b6d4" stroke-width="0.8"></ellipse><ellipse cx="0" cy="0" rx="8" ry="3" fill="none" stroke="#06b6d4" stroke-width="0.8" transform="rotate(60)"></ellipse><ellipse cx="0" cy="0" rx="8" ry="3" fill="none" stroke="#06b6d4" stroke-width="0.8" transform="rotate(-60)"></ellipse><circle cx="0" cy="0" r="1.6" fill="#06b6d4" stroke="#0f172a" stroke-width="0.6"></circle></g><g transform="translate(102,20) scale(0.7)"><ellipse cx="0" cy="0" rx="8" ry="3" fill="none" stroke="#fde047" stroke-width="0.8"></ellipse><ellipse cx="0" cy="0" rx="8" ry="3" fill="none" stroke="#fde047" stroke-width="0.8" transform="rotate(60)"></ellipse><ellipse cx="0" cy="0" rx="8" ry="3" fill="none" stroke="#fde047" stroke-width="0.8" transform="rotate(-60)"></ellipse><circle cx="0" cy="0" r="1.3" fill="#fde047" stroke="#0f172a" stroke-width="0.5"></circle></g></g><path d="M104 47.8 L104.704 49.296 L106.2 50 L104.704 50.704 L104 52.2 L103.296 50.704 L101.8 50 L103.296 49.296 Z" fill="#67e8f9" stroke="#0f172a" stroke-width="0.6" opacity="1"></path><path d="M16 60.2 L16.576 61.424 L17.8 62 L16.576 62.576 L16 63.8 L15.424 62.576 L14.2 62 L15.424 61.424 Z" fill="#fde047" stroke="#0f172a" stroke-width="0.6" opacity="1"></path><g opacity="0.9"><path d="M108 86.4 L108 89.6" stroke="#06b6d4" stroke-width="0.9" stroke-linecap="round"></path><path d="M106.4 88 L109.6 88" stroke="#06b6d4" stroke-width="0.9" stroke-linecap="round"></path><circle cx="108" cy="88" r="0.6" fill="#06b6d4"></circle></g><ellipse cx="60" cy="134" rx="32" ry="4" fill="#0f172a" opacity="0.22"></ellipse><path d="M46 102 L44 132 L56 132 L58 102 Z" fill="#e2e8f0" stroke="#0f172a" stroke-width="2.4" stroke-linejoin="round"></path><path d="M62 102 L62 132 L74 132 L76 102 Z" fill="#e2e8f0" stroke="#0f172a" stroke-width="2.4" stroke-linejoin="round"></path><path d="M42 130 L58 130 M64 130 L78 130" stroke="#0f766e" stroke-width="1.4" stroke-linecap="round"></path><path d="M40 128 L60 128 Q62 130 60 133 L40 133 Q36 131 40 128 Z" fill="#0a1330" stroke="#0f172a" stroke-width="1.4"></path><path d="M62 128 L80 128 Q83 130 80 133 L62 133 Q60 131 62 128 Z" fill="#0a1330" stroke="#0f172a" stroke-width="1.4"></path><path d="M44 130 L50 130 M67 130 L73 130" stroke="#e5e7eb" stroke-width="0.8" stroke-linecap="round"></path><path d="M38 78 Q34 98 40 108 L82 108 Q88 98 84 78 Q60 70 38 78 Z" fill="url(#b11_coat)" stroke="#0f172a" stroke-width="2.6" stroke-linejoin="round"></path><path d="M48 78 L48 106 M72 78 L72 106" stroke="#0f172a" stroke-width="1.6" stroke-linecap="round" opacity="0.35"></path><path d="M53 78 L60 82 L67 78 L65 84 L60 82 L55 84 Z" fill="#06b6d4" stroke="#0f172a" stroke-width="1.4" stroke-linejoin="round"></path><circle cx="60" cy="82" r="1" fill="#0a1330"></circle><circle cx="60" cy="90" r="1.4" fill="#e2e8f0" stroke="#0f172a" stroke-width="0.9"></circle><circle cx="60" cy="98" r="1.4" fill="#e2e8f0" stroke="#0f172a" stroke-width="0.9"></circle><rect x="68" y="90" width="9" height="7" rx="1" fill="rgba(255,255,255,0.04)" stroke="#0f172a" stroke-width="1.4"></rect><rect x="72" y="89" width="1.4" height="6" rx="0.4" fill="#06b6d4" stroke="#0f172a" stroke-width="0.6"></rect><rect x="44" y="88" width="8" height="11" rx="1" fill="#fef3c7" stroke="#0f172a" stroke-width="1.2"></rect><circle cx="48" cy="91.5" r="1.6" fill="#fdba74" stroke="#0f172a" stroke-width="0.7"></circle><rect x="45" y="94" width="6" height="1" fill="#06b6d4"></rect><rect x="45" y="96" width="6" height="0.7" fill="#0f172a" opacity="0.45"></rect><rect x="45" y="97.2" width="4" height="0.7" fill="#0f172a" opacity="0.45"></rect><path d="M44 84 L52 84" stroke="#0f172a" stroke-width="0.8"></path><rect x="47" y="82" width="2" height="3" rx="0.6" fill="#06b6d4" stroke="#0f172a" stroke-width="0.5"></rect><ellipse cx="76" cy="100" rx="2.2" ry="1.2" fill="#06b6d4" opacity="0.55"></ellipse><ellipse cx="79" cy="102" rx="0.9" ry="0.5" fill="#06b6d4" opacity="0.45"></ellipse><path d="M34 82 Q24 92 28 104 L36 102 Q34 92 38 80 Z" fill="url(#b11_coat)" stroke="#0f172a" stroke-width="2.4" stroke-linejoin="round"></path><g transform="translate(22,96)"><path d="M-3 -10 L3 -10 L3 -4 L10 6 L-10 6 Z" fill="url(#b11_flask)" stroke="#0f172a" stroke-width="2" stroke-linejoin="round"></path><rect x="-3" y="-12" width="6" height="3" rx="0.5" fill="#e2e8f0" stroke="#0f172a" stroke-width="1.3"></rect><circle cx="-3" cy="2" r="1.2" fill="#a5f3fc" opacity="0.85"></circle><circle cx="2" cy="0" r="0.9" fill="#a5f3fc" opacity="0.75"></circle><circle cx="5" cy="3" r="0.7" fill="#fff" opacity="0.7"></circle><circle cx="-1" cy="-14" r="0.8" fill="#a5f3fc" stroke="#0f172a" stroke-width="0.4" opacity="0.85"></circle><circle cx="2" cy="-18" r="0.6" fill="#a5f3fc" stroke="#0f172a" stroke-width="0.35" opacity="0.75"></circle><circle cx="-2" cy="-22" r="0.5" fill="#a5f3fc" opacity="0.65"></circle><path d="M-4 -15 Q-2 -19 -4 -23 Q-6 -27 -3 -30" fill="none" stroke="#a5f3fc" stroke-width="1.2" stroke-linecap="round" opacity="0.55"></path></g><path d="M82 78 Q92 88 94 96 L86 100 Q80 94 76 80 Z" fill="url(#b11_coat)" stroke="#0f172a" stroke-width="2.4" stroke-linejoin="round"></path><g transform="translate(92,96) rotate(-10)"><rect x="-2.5" y="-12" width="5" height="14" rx="2.2" fill="#67e8f9" stroke="#0f172a" stroke-width="1.6"></rect><rect x="-2.8" y="-13" width="5.6" height="2" rx="0.5" fill="#e2e8f0" stroke="#0f172a" stroke-width="1.2"></rect><ellipse cx="0" cy="-3" rx="1.5" ry="0.8" fill="#a5f3fc"></ellipse><circle cx="0" cy="-15" r="0.7" fill="#a5f3fc" stroke="#0f172a" stroke-width="0.35"></circle></g><rect x="55" y="70" width="10" height="8" fill="#fdba74" stroke="#0f172a" stroke-width="2"></rect><g><path d="M28 50 C28 20 40 8 60 8 C80 8 92 24 92 50 V70 C92 78 86 82 78 79 C72 82 48 82 42 79 C34 82 28 78 28 70 Z" fill="url(#b11_hair)" stroke="#0f172a" stroke-width="2.4"></path><path d="M28 22 L20 12 M32 14 L26 4 M92 22 L100 12 M88 14 L94 4 M60 8 L60 2" stroke="#0f172a" stroke-width="2" stroke-linecap="round"></path><path d="M22 32 L14 28 M98 32 L106 28" stroke="#0f172a" stroke-width="1.8" stroke-linecap="round"></path><ellipse cx="60" cy="48" rx="22" ry="24" fill="url(#b11_face)" stroke="#0f172a" stroke-width="2.4"></ellipse><path d="M30 48 C32 28 44 14 62 14 C76 14 88 26 90 40 C78 34 68 24 58 24 C48 34 36 44 30 48 Z" fill="url(#b11_hairFront)" stroke="#0f172a" stroke-width="2.2" stroke-linejoin="round"></path><path d="M34 24 L86 24" stroke="#1e293b" stroke-width="2.4" stroke-linecap="round"></path><ellipse cx="50" cy="26" rx="7" ry="5" fill="#1e293b" stroke="#0f172a" stroke-width="2"></ellipse><ellipse cx="70" cy="26" rx="7" ry="5" fill="#1e293b" stroke="#0f172a" stroke-width="2"></ellipse><ellipse cx="50" cy="26" rx="4" ry="2.6" fill="#06b6d4" stroke="#0f172a" stroke-width="1" opacity="0.9"></ellipse><ellipse cx="70" cy="26" rx="4" ry="2.6" fill="#06b6d4" stroke="#0f172a" stroke-width="1" opacity="0.9"></ellipse><path d="M48 24 L52 24 M68 24 L72 24" stroke="#fff" stroke-width="0.8" opacity="0.7"></path><path d="M57 26 L63 26" stroke="#1e293b" stroke-width="1.6" stroke-linecap="round"></path><path d="M42 40 Q49 36 56 42" stroke="#0f172a" stroke-width="3" stroke-linecap="round" fill="none"></path><path d="M64 42 Q71 36 78 40" stroke="#0f172a" stroke-width="3" stroke-linecap="round" fill="none"></path><path d="M43 40 L46 38 M76 38 L78 40" stroke="#0f172a" stroke-width="1.6" stroke-linecap="round"></path><ellipse cx="50" cy="52" rx="6.5" ry="7.5" fill="url(#b11_eye)" stroke="#0f172a" stroke-width="1.5"></ellipse><ellipse cx="70" cy="52" rx="6.5" ry="7.5" fill="url(#b11_eye)" stroke="#0f172a" stroke-width="1.5"></ellipse><g><circle cx="50" cy="52" r="2.8" fill="#0a1330"></circle><circle cx="70" cy="52" r="2.8" fill="#0a1330"></circle><circle cx="48.5" cy="49.5" r="2" fill="#fff"></circle><circle cx="68.5" cy="49.5" r="2" fill="#fff"></circle><circle cx="51.5" cy="54.5" r="1.2" fill="#a5f3fc"></circle><circle cx="71.5" cy="54.5" r="1.2" fill="#a5f3fc"></circle></g><path d="M56 62 Q60 66 64 62" stroke="#0f172a" stroke-width="2" stroke-linecap="round" fill="none"></path><ellipse cx="42" cy="60" rx="3.2" ry="1.7" fill="#ff3ba8" opacity="0.4"></ellipse><ellipse cx="78" cy="60" rx="3.2" ry="1.7" fill="#ff3ba8" opacity="0.4"></ellipse></g></svg>
