<?xml version="1.0" encoding="UTF-8"?>
<svg xmlns="http://www.w3.org/2000/svg" viewBox="0 0 120 140" class="block" style="width:120px; height:140px" aria-hidden="true" role="img"><defs><linearGradient id="b12_hair" x1="30" x2="90" y1="6" y2="60" gradientUnits="userSpaceOnUse"><stop stop-color="#312e81"></stop><stop offset="0.55" stop-color="#4c1d95"></stop><stop offset="1" stop-color="#0f172a"></stop></linearGradient><linearGradient id="b12_hairFront" x1="34" x2="86" y1="10" y2="38" gradientUnits="userSpaceOnUse"><stop stop-color="#e9d5ff"></stop><stop offset="0.45" stop-color="#a855f7"></stop><stop offset="1" stop-color="#4338ca"></stop></linearGradient><linearGradient id="b12_face" x1="38" x2="82" y1="22" y2="74" gradientUnits="userSpaceOnUse"><stop stop-color="#ffedd5"></stop><stop offset="0.55" stop-color="#fdba74"></stop><stop offset="1" stop-color="#c2410c"></stop></linearGradient><linearGradient id="b12_eye" x1="46" x2="74" y1="42" y2="62" gradientUnits="userSpaceOnUse"><stop stop-color="#020617"></stop><stop offset="0.45" stop-color="#4338ca"></stop><stop offset="1" stop-color="#a78bff"></stop></linearGradient><linearGradient id="b12_jacket" x1="32" x2="88" y1="72" y2="118" gradientUnits="userSpaceOnUse"><stop stop-color="#4338ca"></stop><stop offset="1" stop-color="#0f172a"></stop></linearGradient><linearGradient id="b12_vinyl" x1="8" x2="40" y1="84" y2="116" gradientUnits="userSpaceOnUse"><stop stop-color="#0a0a14"></stop><stop offset="1" stop-color="#1e293b"></stop></linearGradient></defs><g opacity="0.78"><rect x="100" y="58" width="2.4" height="14" rx="1" fill="#a855f7"></rect><rect x="104" y="50" width="2.4" height="22" rx="1" fill="#a855f7" opacity="0.85"></rect><rect x="108" y="62" width="2.4" height="10" rx="1" fill="#a855f7" opacity="0.7"></rect><rect x="112" y="54" width="2.4" height="18" rx="1" fill="#a855f7" opacity="0.55"></rect></g><g opacity="0.85"><g transform="translate(98,28)"><ellipse cx="0" cy="6" rx="2.4" ry="1.8" fill="#fde047" stroke="#0f172a" stroke-width="0.8" transform="rotate(-20)"></ellipse><path d="M2 5 L2 -6 L7 -8" stroke="#0f172a" stroke-width="1.4" stroke-linecap="round" fill="none"></path></g><g transform="translate(20,38)"><ellipse cx="0" cy="6" rx="2.2" ry="1.6" fill="#a78bff" stroke="#0f172a" stroke-width="0.8" transform="rotate(-20)"></ellipse><path d="M2 5 L2 -5" stroke="#0f172a" stroke-width="1.3" stroke-linecap="round" fill="none"></path><path d="M2 -5 Q4 -3 6 -1" stroke="#0f172a" stroke-width="1.2" stroke-linecap="round" fill="none"></path></g><g transform="translate(10,72) scale(0.8)"><ellipse cx="0" cy="6" rx="2.2" ry="1.6" fill="#fde047" stroke="#0f172a" stroke-width="0.8" transform="rotate(-20)"></ellipse><path d="M2 5 L2 -5" stroke="#0f172a" stroke-width="1.3" stroke-linecap="round" fill="none"></path></g></g><path d="M108 92 L108.64 93.36 L110 94 L108.64 94.64 L108 96 L107.36 94.64 L106 94 L107.36 93.36 Z" fill="#fde047" stroke="#0f172a" stroke-width="0.6" opacity="1"></path><path d="M12 92.2 L12.576 93.424 L13.8 94 L12.576 94.576 L12 95.8 L11.424 94.576 L10.2 94 L11.424 93.424 Z" fill="#a78bff" stroke="#0f172a" stroke-width="0.6" opacity="1"></path><ellipse cx="60" cy="134" rx="34" ry="4" fill="#0f172a" opacity="0.24"></ellipse><path d="M44 100 L42 130 L54 130 L56 100 Z" fill="#1e1b4b" stroke="#0f172a" stroke-width="2.4" stroke-linejoin="round"></path><path d="M64 100 L64 130 L76 130 L78 100 Z" fill="#1e1b4b" stroke="#0f172a" stroke-width="2.4" stroke-linejoin="round"></path><path d="M40 128 L80 128" stroke="#a855f7" stroke-width="2" stroke-linecap="round"></path><path d="M40 126 L58 126 Q60 130 56 133 L40 133 Q36 131 40 126 Z" fill="#fff" stroke="#0f172a" stroke-width="1.6"></path><path d="M62 126 L80 126 Q83 130 79 133 L62 133 Q59 131 62 126 Z" fill="#fff" stroke="#0f172a" stroke-width="1.6"></path><path d="M44 128 L52 128 M44 130 L52 130 M66 128 L74 128 M66 130 L74 130" stroke="#0f172a" stroke-width="0.6" stroke-linecap="round"></path><circle cx="44" cy="131" r="0.8" fill="#a855f7"></circle><circle cx="74" cy="131" r="0.8" fill="#a855f7"></circle><path d="M38 76 Q32 96 42 110 L80 110 Q90 96 84 76 Q60 66 38 76 Z" fill="url(#b12_jacket)" stroke="#0f172a" stroke-width="2.6" stroke-linejoin="round"></path><path d="M50 84 L70 84" stroke="#a855f7" stroke-width="2.8" stroke-linecap="round"></path><path d="M58 76 L62 76 L61 88 L59 88 Z" fill="rgba(255,255,255,0.04)" stroke="#0f172a" stroke-width="1.8"></path><rect x="44" y="92" width="9" height="6" rx="1" fill="#fde047" stroke="#0f172a" stroke-width="1.2"></rect><path d="M46 95 L48 93 L50 95 L48 97 Z" fill="#a855f7" stroke="#0f172a" stroke-width="0.6"></path><rect x="67" y="92" width="9" height="6" rx="1" fill="#a855f7" stroke="#0f172a" stroke-width="1.2"></rect><path d="M69 95 L75 95" stroke="#fde047" stroke-width="1.4" stroke-linecap="round"></path><path d="M42 106 L80 106" stroke="#0f172a" stroke-width="1.6" stroke-linecap="round" opacity="0.5"></path><path d="M44 108 L48 108 M52 108 L56 108 M60 108 L64 108 M68 108 L72 108 M76 108 L80 108" stroke="#0f172a" stroke-width="0.9" stroke-linecap="round" opacity="0.5"></path><path d="M52 82 Q60 90 68 82" stroke="#fde047" stroke-width="1.4" stroke-linecap="round" fill="none"></path><circle cx="60" cy="88" r="1.4" fill="#fde047" stroke="#0f172a" stroke-width="0.6"></circle><path d="M76 78 Q90 84 88 100 L82 102 Q78 90 74 80 Z" fill="url(#b12_jacket)" stroke="#0f172a" stroke-width="2.4" stroke-linejoin="round"></path><g transform="translate(94,98) rotate(20)"><rect x="-1.8" y="0" width="3.6" height="12" rx="1" fill="#0f172a" stroke="#0f172a" stroke-width="1.4"></rect><ellipse cx="0" cy="-2" rx="4" ry="5" fill="#1e293b" stroke="#0f172a" stroke-width="1.8"></ellipse><path d="M-3 -4 L3 -4 M-3 -2 L3 -2 M-3 0 L3 0" stroke="#a78bff" stroke-width="0.8" stroke-linecap="round"></path><path d="M0 12 Q4 18 0 24 Q-4 30 0 34" stroke="#0f172a" stroke-width="1.4" stroke-linecap="round" fill="none"></path><circle cx="0" cy="-2" r="1.3" fill="#fde047" opacity="0.7"></circle></g><path d="M32 82 Q22 94 30 104 L38 98 Q36 86 34 78 Z" fill="url(#b12_jacket)" stroke="#0f172a" stroke-width="2.4" stroke-linejoin="round"></path><g transform="translate(22,100)"><circle cx="0" cy="0" r="11" fill="url(#b12_vinyl)" stroke="#0f172a" stroke-width="2"></circle><circle cx="0" cy="0" r="9" fill="none" stroke="#1e293b" stroke-width="0.6"></circle><circle cx="0" cy="0" r="6.5" fill="none" stroke="#1e293b" stroke-width="0.6"></circle><circle cx="0" cy="0" r="4" fill="#a855f7" stroke="#0f172a" stroke-width="1.2"></circle><circle cx="0" cy="0" r="0.8" fill="#0a1330"></circle><path d="M-8 -4 Q-3 0 -8 4" stroke="#fff" stroke-width="0.6" opacity="0.35" fill="none"></path></g><rect x="55" y="70" width="10" height="8" fill="#fdba74" stroke="#0f172a" stroke-width="2"></rect><g><path d="M26 48 C26 18 40 8 60 8 C80 8 94 20 94 48 V68 C94 78 86 82 78 80 C72 84 48 84 42 80 C34 82 26 76 26 68 Z" fill="url(#b12_hair)" stroke="#0f172a" stroke-width="2.4"></path><ellipse cx="60" cy="48" rx="22" ry="24" fill="url(#b12_face)" stroke="#0f172a" stroke-width="2.4"></ellipse><path d="M28 50 C30 26 44 12 60 12 C74 12 86 22 90 38 C80 30 70 22 58 26 C46 32 34 42 28 50 Z" fill="url(#b12_hairFront)" stroke="#0f172a" stroke-width="2.2" stroke-linejoin="round"></path><path d="M22 50 Q60 6 98 50" fill="none" stroke="#0a1330" stroke-width="4" stroke-linecap="round"></path><path d="M22 50 Q60 6 98 50" fill="none" stroke="#1e293b" stroke-width="2" stroke-linecap="round"></path><ellipse cx="22" cy="50" rx="10" ry="14" fill="#1e293b" stroke="#0f172a" stroke-width="2.4"></ellipse><ellipse cx="22" cy="50" rx="6" ry="9" fill="#a855f7" stroke="#0f172a" stroke-width="1.6"></ellipse><circle cx="22" cy="50" r="2.4" fill="#fde047" opacity="0.85"></circle><path d="M16 38 L16 62" stroke="#0f172a" stroke-width="1.2"></path><circle cx="14" cy="44" r="0.8" fill="#fde047"></circle><circle cx="14" cy="48" r="0.8" fill="#fde047"></circle><circle cx="14" cy="52" r="0.8" fill="#fde047"></circle><ellipse cx="98" cy="50" rx="10" ry="14" fill="#1e293b" stroke="#0f172a" stroke-width="2.4"></ellipse><ellipse cx="98" cy="50" rx="6" ry="9" fill="#a855f7" stroke="#0f172a" stroke-width="1.6"></ellipse><circle cx="98" cy="50" r="2.4" fill="#fde047" opacity="0.85"></circle><path d="M104 38 L104 62" stroke="#0f172a" stroke-width="1.2"></path><circle cx="106" cy="44" r="0.8" fill="#fde047"></circle><circle cx="106" cy="48" r="0.8" fill="#fde047"></circle><circle cx="106" cy="52" r="0.8" fill="#fde047"></circle><path d="M108 56 Q116 62 110 68 Q104 74 110 80" fill="none" stroke="#0f172a" stroke-width="1.6" stroke-linecap="round"></path><path d="M44 42 L56 46" stroke="#0f172a" stroke-width="2.4" stroke-linecap="round"></path><path d="M64 46 L76 42" stroke="#0f172a" stroke-width="2.4" stroke-linecap="round"></path><ellipse cx="50" cy="54" rx="6.5" ry="7.5" fill="url(#b12_eye)" stroke="#0f172a" stroke-width="1.5"></ellipse><ellipse cx="70" cy="54" rx="6.5" ry="7.5" fill="url(#b12_eye)" stroke="#0f172a" stroke-width="1.5"></ellipse><g><circle cx="50" cy="54" r="2.8" fill="#0a1330"></circle><circle cx="70" cy="54" r="2.8" fill="#0a1330"></circle><circle cx="48.5" cy="51.5" r="2" fill="#fff"></circle><circle cx="68.5" cy="51.5" r="2" fill="#fff"></circle><circle cx="52" cy="56" r="1.2" fill="#ddd6fe"></circle><circle cx="72" cy="56" r="1.2" fill="#ddd6fe"></circle></g><path d="M54 68 Q60 72 66 68" stroke="#0f172a" stroke-width="2.2" stroke-linecap="round" fill="none"></path><ellipse cx="43" cy="62" rx="3.2" ry="1.7" fill="#ff3ba8" opacity="0.42"></ellipse><ellipse cx="77" cy="62" rx="3.2" ry="1.7" fill="#ff3ba8" opacity="0.42"></ellipse></g></svg>
