<?xml version="1.0" encoding="UTF-8"?>
<svg xmlns="http://www.w3.org/2000/svg" viewBox="0 0 120 140" class="block" style="width:120px; height:140px" aria-hidden="true" role="img"><defs><linearGradient id="b13_hair" x1="30" x2="90" y1="10" y2="64" gradientUnits="userSpaceOnUse"><stop stop-color="#422006"></stop><stop offset="0.5" stop-color="#78350f"></stop><stop offset="1" stop-color="#1c1917"></stop></linearGradient><linearGradient id="b13_hairFront" x1="34" x2="86" y1="14" y2="40" gradientUnits="userSpaceOnUse"><stop stop-color="#d83bff"></stop><stop offset="0.45" stop-color="#ca8a04"></stop><stop offset="1" stop-color="#854d0e"></stop></linearGradient><linearGradient id="b13_face" x1="38" x2="82" y1="24" y2="74" gradientUnits="userSpaceOnUse"><stop stop-color="#ffedd5"></stop><stop offset="0.55" stop-color="#fdba74"></stop><stop offset="1" stop-color="#c2410c"></stop></linearGradient><linearGradient id="b13_eye" x1="46" x2="74" y1="44" y2="62" gradientUnits="userSpaceOnUse"><stop stop-color="#020617"></stop><stop offset="0.45" stop-color="#1e3a8a"></stop><stop offset="1" stop-color="#38bdf8"></stop></linearGradient><linearGradient id="b13_coat" x1="32" x2="88" y1="74" y2="116" gradientUnits="userSpaceOnUse"><stop stop-color="#1e3a8a"></stop><stop offset="1" stop-color="#0f172a"></stop></linearGradient></defs><g opacity="0.7" transform="translate(106,124)"><circle cx="0" cy="0" r="8" fill="none" stroke="#ca8a04" stroke-width="0.8"></circle><path d="M0 -8 L1.5 -1.5 L8 0 L1.5 1.5 L0 8 L-1.5 1.5 L-8 0 L-1.5 -1.5 Z" fill="#ca8a04" stroke="#0f172a" stroke-width="0.6"></path><text x="0" y="-10" text-anchor="middle" font-size="3" fill="#ca8a04" font-family="serif">N</text></g><path d="M14 17.8 L14.704 19.296 L16.2 20 L14.704 20.704 L14 22.2 L13.296 20.704 L11.8 20 L13.296 19.296 Z" fill="#fde047" stroke="#0f172a" stroke-width="0.6" opacity="1"></path><path d="M104 26 L104.64 27.36 L106 28 L104.64 28.64 L104 30 L103.36 28.64 L102 28 L103.36 27.36 Z" fill="#fde047" stroke="#0f172a" stroke-width="0.6" opacity="1"></path><path d="M18 60.2 L18.576 61.424 L19.8 62 L18.576 62.576 L18 63.8 L17.424 62.576 L16.2 62 L17.424 61.424 Z" fill="#67e8f9" stroke="#0f172a" stroke-width="0.6" opacity="1"></path><g opacity="0.9"><path d="M108 62.6 L108 65.4" stroke="#fde047" stroke-width="0.9" stroke-linecap="round"></path><path d="M106.6 64 L109.4 64" stroke="#fde047" stroke-width="0.9" stroke-linecap="round"></path><circle cx="108" cy="64" r="0.6" fill="#fde047"></circle></g><ellipse cx="60" cy="134" rx="32" ry="4" fill="#0f172a" opacity="0.24"></ellipse><path d="M46 102 L44 132 L56 132 L58 102 Z" fill="#1e3a8a" stroke="#0f172a" stroke-width="2.4" stroke-linejoin="round"></path><path d="M62 102 L62 132 L74 132 L76 102 Z" fill="#1e3a8a" stroke="#0f172a" stroke-width="2.4" stroke-linejoin="round"></path><path d="M40 130 L60 130 Q62 132 60 134 L40 134 Q37 132 40 130 Z" fill="#0a0a14" stroke="#0f172a" stroke-width="1.4"></path><path d="M62 130 L80 130 Q83 132 80 134 L62 134 Q60 132 62 130 Z" fill="#0a0a14" stroke="#0f172a" stroke-width="1.4"></path><path d="M44 110 L58 110 M64 110 L78 110" stroke="#ca8a04" stroke-width="1.4" stroke-linecap="round"></path><path d="M40 76 Q34 96 44 108 L78 108 Q86 96 82 76 Q60 68 40 76 Z" fill="url(#b13_coat)" stroke="#0f172a" stroke-width="2.6" stroke-linejoin="round"></path><path d="M44 76 L52 100 M76 76 L70 100" stroke="#ca8a04" stroke-width="2" stroke-linecap="round"></path><path d="M44 76 L52 100 M76 76 L70 100" stroke="#fde047" stroke-width="0.8" stroke-linecap="round"></path><circle cx="54" cy="84" r="1.4" fill="#ca8a04" stroke="#0f172a" stroke-width="0.8"></circle><circle cx="54" cy="92" r="1.4" fill="#ca8a04" stroke="#0f172a" stroke-width="0.8"></circle><circle cx="54" cy="100" r="1.4" fill="#ca8a04" stroke="#0f172a" stroke-width="0.8"></circle><circle cx="66" cy="84" r="1.4" fill="#ca8a04" stroke="#0f172a" stroke-width="0.8"></circle><circle cx="66" cy="92" r="1.4" fill="#ca8a04" stroke="#0f172a" stroke-width="0.8"></circle><circle cx="66" cy="100" r="1.4" fill="#ca8a04" stroke="#0f172a" stroke-width="0.8"></circle><rect x="46" y="84" width="5" height="3" fill="#dc2626" stroke="#0f172a" stroke-width="0.6"></rect><circle cx="48.5" cy="89" r="1.4" fill="#fde047" stroke="#0f172a" stroke-width="0.6"></circle><rect x="46" y="91" width="5" height="3" fill="#3b82f6" stroke="#0f172a" stroke-width="0.6"></rect><circle cx="48.5" cy="96" r="1.4" fill="#ca8a04" stroke="#0f172a" stroke-width="0.6"></circle><path d="M30 82 Q24 92 32 102 L40 96 L38 84 Z" fill="url(#b13_coat)" stroke="#0f172a" stroke-width="2.4" stroke-linejoin="round"></path><g transform="translate(28,98) rotate(-10)"><rect x="-6" y="-2" width="14" height="4" rx="1.4" fill="#fef3c7" stroke="#0f172a" stroke-width="1.4"></rect><path d="M-6 0 L8 0" stroke="#92400e" stroke-width="0.6"></path><circle cx="-6" cy="0" r="1.8" fill="#fef3c7" stroke="#0f172a" stroke-width="1.2"></circle><circle cx="8" cy="0" r="1.8" fill="#fef3c7" stroke="#0f172a" stroke-width="1.2"></circle><path d="M-6 -2 L-6 2 M8 -2 L8 2" stroke="#92400e" stroke-width="0.5"></path><path d="M1 -2 L1 2" stroke="#ca8a04" stroke-width="1.2"></path></g><path d="M82 78 Q92 86 90 100 L82 102 Q78 88 76 78 Z" fill="url(#b13_coat)" stroke="#0f172a" stroke-width="2.4" stroke-linejoin="round"></path><g transform="translate(92,84) rotate(28)"><rect x="0" y="-3" width="16" height="6" rx="2" fill="#78350f" stroke="#0f172a" stroke-width="1.6"></rect><rect x="0" y="-3" width="16" height="6" rx="2" fill="#ca8a04" opacity="0.85"></rect><rect x="14" y="-2.4" width="8" height="4.8" rx="1.6" fill="#92400e" stroke="#0f172a" stroke-width="1.4"></rect><rect x="20" y="-1.8" width="4" height="3.6" rx="1.2" fill="#a16207" stroke="#0f172a" stroke-width="1.2"></rect><circle cx="0" cy="0" r="2.4" fill="#bae6fd" stroke="#0f172a" stroke-width="1.3"></circle><circle cx="0" cy="0" r="1.2" fill="#fff" opacity="0.7"></circle><path d="M5 -3 L5 3 M10 -3 L10 3" stroke="#92400e" stroke-width="0.9"></path></g><rect x="55" y="70" width="10" height="8" fill="#fdba74" stroke="#0f172a" stroke-width="2"></rect><g><path d="M22 30 L98 30 L92 14 L28 14 Z" fill="#0a0a14" stroke="#0f172a" stroke-width="2.4" stroke-linejoin="round"></path><rect x="22" y="30" width="76" height="6" fill="#1e3a8a" stroke="#0f172a" stroke-width="2"></rect><rect x="22" y="36" width="76" height="2.4" fill="#ca8a04" stroke="#0f172a" stroke-width="1"></rect><path d="M22 36 L98 36 L96 42 L24 42 Z" fill="#1e293b" stroke="#0f172a" stroke-width="2" stroke-linejoin="round"></path><path d="M26 40 L94 40" stroke="#ca8a04" stroke-width="1" stroke-linecap="round"></path><g transform="translate(60,22) scale(0.9)"><circle cx="0" cy="0" r="5" fill="#ca8a04" stroke="#0f172a" stroke-width="1.4"></circle><circle cx="0" cy="0" r="5" fill="none" stroke="#fde047" stroke-width="0.5"></circle><path d="M0 -3 L0 3 M-3 -1 L3 -1 M-3 2 Q0 5 3 2" stroke="#0f172a" stroke-width="1" stroke-linecap="round" fill="none"></path><circle cx="0" cy="-3" r="0.8" fill="#0f172a"></circle></g><path d="M24 22 L96 22" stroke="#1e293b" stroke-width="0.8" opacity="0.7"></path><path d="M28 50 C28 30 42 18 60 18 C78 18 92 32 92 50 V68 C92 76 84 80 76 78 C70 82 50 82 44 78 C32 80 28 72 28 64 Z" fill="url(#b13_hair)" stroke="#0f172a" stroke-width="2.4"></path><ellipse cx="60" cy="48" rx="22" ry="24" fill="url(#b13_face)" stroke="#0f172a" stroke-width="2.4"></ellipse><path d="M32 46 C34 30 46 18 60 18 C72 18 82 26 88 38 C78 32 66 26 54 32 C44 36 36 42 32 46 Z" fill="url(#b13_hairFront)" stroke="#0f172a" stroke-width="2.2" stroke-linejoin="round"></path><path d="M42 38 L56 42" stroke="#0f172a" stroke-width="2.4" stroke-linecap="round"></path><path d="M64 42 L78 38" stroke="#0f172a" stroke-width="2.4" stroke-linecap="round"></path><ellipse cx="50" cy="52" rx="6.4" ry="7.2" fill="url(#b13_eye)" stroke="#0f172a" stroke-width="1.5"></ellipse><ellipse cx="70" cy="52" rx="6.4" ry="7.2" fill="url(#b13_eye)" stroke="#0f172a" stroke-width="1.5"></ellipse><g><circle cx="50" cy="52" r="2.6" fill="#0a1330"></circle><circle cx="70" cy="52" r="2.6" fill="#0a1330"></circle><circle cx="48.5" cy="50" r="1.8" fill="#fff"></circle><circle cx="68.5" cy="50" r="1.8" fill="#fff"></circle><circle cx="52" cy="54" r="1.1" fill="#5b8dff"></circle><circle cx="72" cy="54" r="1.1" fill="#5b8dff"></circle></g><path d="M54 66 Q60 64 66 66" stroke="#0f172a" stroke-width="2" stroke-linecap="round" fill="none"></path><ellipse cx="43" cy="60" rx="3" ry="1.6" fill="#ff3ba8" opacity="0.38"></ellipse><ellipse cx="77" cy="60" rx="3" ry="1.6" fill="#ff3ba8" opacity="0.38"></ellipse></g></svg>
