<?xml version="1.0" encoding="UTF-8"?>
<svg xmlns="http://www.w3.org/2000/svg" viewBox="0 0 120 140" class="block" style="width:120px; height:140px" aria-hidden="true" role="img"><defs><linearGradient id="b14_hair" x1="30" x2="90" y1="8" y2="62" gradientUnits="userSpaceOnUse"><stop stop-color="#57534e"></stop><stop offset="0.5" stop-color="#44403c"></stop><stop offset="1" stop-color="#1c1917"></stop></linearGradient><linearGradient id="b14_hairFront" x1="34" x2="86" y1="22" y2="42" gradientUnits="userSpaceOnUse"><stop stop-color="#e7e5e4"></stop><stop offset="0.45" stop-color="#94a3b8"></stop><stop offset="1" stop-color="#57534e"></stop></linearGradient><linearGradient id="b14_face" x1="38" x2="82" y1="24" y2="74" gradientUnits="userSpaceOnUse"><stop stop-color="#ffedd5"></stop><stop offset="0.55" stop-color="#fdba74"></stop><stop offset="1" stop-color="#9a3412"></stop></linearGradient><linearGradient id="b14_eye" x1="46" x2="74" y1="44" y2="62" gradientUnits="userSpaceOnUse"><stop stop-color="#020617"></stop><stop offset="0.45" stop-color="#7e3bff"></stop><stop offset="1" stop-color="#d83bff"></stop></linearGradient><linearGradient id="b14_tunic" x1="34" x2="86" y1="76" y2="114" gradientUnits="userSpaceOnUse"><stop stop-color="#cbd5e1"></stop><stop offset="1" stop-color="#334155"></stop></linearGradient><linearGradient id="b14_shield" x1="0" x2="36" y1="80" y2="120" gradientUnits="userSpaceOnUse"><stop stop-color="#dc2626"></stop><stop offset="1" stop-color="#7f1d1d"></stop></linearGradient></defs><path d="M14 26 L14.64 27.36 L16 28 L14.64 28.64 L14 30 L13.36 28.64 L12 28 L13.36 27.36 Z" fill="#fde047" stroke="#0f172a" stroke-width="0.6" opacity="1"></path><path d="M106 20 L106.64 21.36 L108 22 L106.64 22.64 L106 24 L105.36 22.64 L104 22 L105.36 21.36 Z" fill="#fde047" stroke="#0f172a" stroke-width="0.6" opacity="1"></path><path d="M108 54.4 L108.512 55.488 L109.6 56 L108.512 56.512 L108 57.6 L107.488 56.512 L106.4 56 L107.488 55.488 Z" fill="#fcd34d" stroke="#0f172a" stroke-width="0.6" opacity="1"></path><path d="M12 66.2 L12.576 67.424 L13.8 68 L12.576 68.576 L12 69.8 L11.424 68.576 L10.2 68 L11.424 67.424 Z" fill="#a78bff" stroke="#0f172a" stroke-width="0.6" opacity="1"></path><g opacity="0.6" transform="translate(110,90)"><path d="M0 -4 Q3 0 0 6 Q-3 0 0 -4 Z" fill="none" stroke="#94a3b8" stroke-width="0.8"></path><path d="M-4 0 L4 0" stroke="#94a3b8" stroke-width="0.7"></path></g><ellipse cx="60" cy="134" rx="34" ry="4" fill="#0f172a" opacity="0.25"></ellipse><path d="M44 102 L46 132 L56 132 L54 102 Z" fill="#be123c" stroke="#0f172a" stroke-width="2.4" stroke-linejoin="round"></path><path d="M64 102 L64 132 L76 132 L66 102 Z" fill="#be123c" stroke="#0f172a" stroke-width="2.4" stroke-linejoin="round"></path><path d="M42 128 L58 128 Q60 132 56 134 L42 134 Q39 132 42 128 Z" fill="#451a03" stroke="#0f172a" stroke-width="1.4"></path><path d="M64 128 L80 128 Q83 132 80 134 L64 134 Q61 132 64 128 Z" fill="#451a03" stroke="#0f172a" stroke-width="1.4"></path><path d="M44 112 L56 116 M64 116 L76 112" stroke="#92400e" stroke-width="1.4" stroke-linecap="round"></path><path d="M40 76 Q34 98 44 110 L78 110 Q86 98 80 76 Q60 68 40 76 Z" fill="url(#b14_tunic)" stroke="#0f172a" stroke-width="2.6" stroke-linejoin="round"></path><path d="M48 76 L72 76 L74 108 L46 108 Z" fill="#be123c" stroke="#0f172a" stroke-width="2" stroke-linejoin="round"></path><path d="M48 82 L72 82 M48 102 L72 102" stroke="#94a3b8" stroke-width="1" stroke-linecap="round"></path><path d="M60 86 L54 92 L54 96 Q57 100 60 100 Q63 100 66 96 L66 92 Z" fill="#94a3b8" stroke="#0f172a" stroke-width="1.4" stroke-linejoin="round"></path><path d="M58 88 L62 88 M60 87 L60 99" stroke="#be123c" stroke-width="0.9"></path><path d="M46 76 L74 76" stroke="#94a3b8" stroke-width="3.2"></path><circle cx="50" cy="77" r="0.7" fill="#1e293b"></circle><circle cx="54" cy="77" r="0.7" fill="#1e293b"></circle><circle cx="58" cy="77" r="0.7" fill="#1e293b"></circle><circle cx="62" cy="77" r="0.7" fill="#1e293b"></circle><circle cx="66" cy="77" r="0.7" fill="#1e293b"></circle><circle cx="70" cy="77" r="0.7" fill="#1e293b"></circle><path d="M30 78 Q22 92 34 101 L40 90 Q36 82 34 76 Z" fill="url(#b14_tunic)" stroke="#0f172a" stroke-width="2.4" stroke-linejoin="round"></path><g transform="translate(16,100)"><path d="M-10 -16 L10 -16 L10 -2 Q10 6 0 12 Q-10 6 -10 -2 Z" fill="url(#b14_shield)" stroke="#0f172a" stroke-width="2" stroke-linejoin="round"></path><path d="M-10 -16 L10 -16" stroke="#fef3c7" stroke-width="1"></path><path d="M0 -14 L0 8 M-8 -8 L8 -8" stroke="#fef3c7" stroke-width="0.8" opacity="0.85"></path><path d="M0 -6 L-4 -2 L-4 1 Q-2 4 0 4 Q2 4 4 1 L4 -2 Z" fill="#fef3c7" stroke="#0f172a" stroke-width="1" stroke-linejoin="round"></path><circle cx="-7" cy="-13" r="0.8" fill="#fef3c7" stroke="#0f172a" stroke-width="0.4"></circle><circle cx="7" cy="-13" r="0.8" fill="#fef3c7" stroke="#0f172a" stroke-width="0.4"></circle></g><path d="M88 76 Q98 88 88 102 L80 98 Q82 86 82 78 Z" fill="url(#b14_tunic)" stroke="#0f172a" stroke-width="2.4" stroke-linejoin="round"></path><g transform="translate(96,88) rotate(12)"><rect x="-3" y="-38" width="6" height="44" rx="1.2" fill="#e5e7eb" stroke="#0f172a" stroke-width="2"></rect><path d="M0 -38 L0 6" stroke="#94a3b8" stroke-width="0.9"></path><path d="M-3 -38 L3 -38 L0 -44 Z" fill="#e5e7eb" stroke="#0f172a" stroke-width="2" stroke-linejoin="round"></path><rect x="-12" y="6" width="24" height="3" rx="0.8" fill="#94a3b8" stroke="#0f172a" stroke-width="1.6"></rect><circle cx="-10" cy="7.5" r="1.2" fill="#fde047" stroke="#0f172a" stroke-width="0.6"></circle><circle cx="10" cy="7.5" r="1.2" fill="#fde047" stroke="#0f172a" stroke-width="0.6"></circle><rect x="-1.6" y="9" width="3.2" height="7" rx="1.2" fill="#451a03" stroke="#0f172a" stroke-width="1.4"></rect><circle cx="0" cy="18" r="2" fill="#94a3b8" stroke="#0f172a" stroke-width="1.2"></circle><circle cx="0" cy="18" r="0.8" fill="#fde047"></circle></g><path d="M44 100 L76 100" stroke="#451a03" stroke-width="3" stroke-linecap="round"></path><rect x="58" y="98" width="4" height="4" rx="0.6" fill="#94a3b8" stroke="#0f172a" stroke-width="1"></rect><path d="M58 100 L62 100" stroke="#fde047" stroke-width="0.8"></path><rect x="46" y="100" width="5" height="6" rx="1" fill="#78350f" stroke="#0f172a" stroke-width="1.2"></rect><rect x="55" y="70" width="10" height="8" fill="#fdba74" stroke="#0f172a" stroke-width="2"></rect><g><path d="M28 50 C28 26 42 12 60 12 C78 12 92 26 92 50 V66 C92 74 84 78 76 76 C72 78 48 78 44 76 C34 78 28 70 28 62 Z" fill="url(#b14_hair)" stroke="#0f172a" stroke-width="2.4"></path><path d="M30 40 Q60 18 90 40 L90 46 L30 46 Z" fill="#94a3b8" stroke="#0f172a" stroke-width="2.4" stroke-linejoin="round"></path><path d="M28 44 L92 44 L94 50 L26 50 Z" fill="#cbd5e1" stroke="#0f172a" stroke-width="2.2" stroke-linejoin="round"></path><path d="M58 50 L60 60 L62 50 Z" fill="#cbd5e1" stroke="#0f172a" stroke-width="1.6" stroke-linejoin="round"></path><circle cx="34" cy="47" r="0.7" fill="#1e293b"></circle><circle cx="42" cy="47" r="0.7" fill="#1e293b"></circle><circle cx="50" cy="47" r="0.7" fill="#1e293b"></circle><circle cx="70" cy="47" r="0.7" fill="#1e293b"></circle><circle cx="78" cy="47" r="0.7" fill="#1e293b"></circle><circle cx="86" cy="47" r="0.7" fill="#1e293b"></circle><path d="M60 14 Q55 6 60 2 Q65 6 60 14" fill="#be123c" stroke="#0f172a" stroke-width="1.8" stroke-linejoin="round"></path><ellipse cx="60" cy="48" rx="22" ry="24" fill="url(#b14_face)" stroke="#0f172a" stroke-width="2.4"></ellipse><path d="M34 48 C36 32 48 20 60 20 C72 20 84 32 86 48 C78 40 68 34 58 34 C48 36 40 42 34 48 Z" fill="url(#b14_hairFront)" stroke="#0f172a" stroke-width="2.2" stroke-linejoin="round"></path><path d="M42 46 L54 50" stroke="#0f172a" stroke-width="2.4" stroke-linecap="round"></path><path d="M66 50 L78 46" stroke="#0f172a" stroke-width="2.4" stroke-linecap="round"></path><ellipse cx="50" cy="54" rx="6.2" ry="5.8" fill="url(#b14_eye)" stroke="#0f172a" stroke-width="1.5"></ellipse><ellipse cx="70" cy="54" rx="6.2" ry="5.8" fill="url(#b14_eye)" stroke="#0f172a" stroke-width="1.5"></ellipse><g><circle cx="50" cy="54" r="2.5" fill="#0a1330"></circle><circle cx="70" cy="54" r="2.5" fill="#0a1330"></circle><circle cx="48.5" cy="52" r="1.6" fill="#fff"></circle><circle cx="68.5" cy="52" r="1.6" fill="#fff"></circle><circle cx="52" cy="56" r="1" fill="#fcd34d"></circle><circle cx="72" cy="56" r="1" fill="#fcd34d"></circle></g><path d="M54 66 L66 66" stroke="#0f172a" stroke-width="2.4" stroke-linecap="round"></path><path d="M43 60 L46 62" stroke="#be123c" stroke-width="1.5" stroke-linecap="round" opacity="0.75"></path><path d="M77 60 L74 62" stroke="#be123c" stroke-width="1.5" stroke-linecap="round" opacity="0.75"></path></g></svg>
