<?xml version="1.0" encoding="UTF-8"?>
<svg xmlns="http://www.w3.org/2000/svg" viewBox="0 0 120 140" class="block" style="width:120px; height:140px" aria-hidden="true" role="img"><defs><linearGradient id="b15_hair" x1="30" x2="90" y1="8" y2="64" gradientUnits="userSpaceOnUse"><stop stop-color="#78350f"></stop><stop offset="0.5" stop-color="#451a03"></stop><stop offset="1" stop-color="#1c1917"></stop></linearGradient><linearGradient id="b15_hairFront" x1="34" x2="86" y1="18" y2="44" gradientUnits="userSpaceOnUse"><stop stop-color="#fed7aa"></stop><stop offset="0.45" stop-color="#f97316"></stop><stop offset="1" stop-color="#9a3412"></stop></linearGradient><linearGradient id="b15_face" x1="38" x2="82" y1="24" y2="74" gradientUnits="userSpaceOnUse"><stop stop-color="#ffedd5"></stop><stop offset="0.55" stop-color="#fdba74"></stop><stop offset="1" stop-color="#c2410c"></stop></linearGradient><linearGradient id="b15_eye" x1="46" x2="74" y1="44" y2="62" gradientUnits="userSpaceOnUse"><stop stop-color="#020617"></stop><stop offset="0.45" stop-color="#dc2626"></stop><stop offset="1" stop-color="#fdba74"></stop></linearGradient></defs><g opacity="0.78"><g transform="translate(16,28) rotate(-22)"><ellipse cx="0" cy="0" rx="3.5" ry="1.4" fill="#16a34a" stroke="#0f172a" stroke-width="0.6"></ellipse><path d="M-3 0 L3 0" stroke="#14532d" stroke-width="0.4"></path></g><g transform="translate(106,32) rotate(20)"><ellipse cx="0" cy="0" rx="3.5" ry="1.4" fill="#16a34a" stroke="#0f172a" stroke-width="0.6"></ellipse><path d="M-3 0 L3 0" stroke="#14532d" stroke-width="0.4"></path></g><g transform="translate(108,90) rotate(45)"><ellipse cx="0" cy="0" rx="3" ry="1.2" fill="#15803d" stroke="#0f172a" stroke-width="0.6"></ellipse></g></g><circle cx="20" cy="46" r="0.9" fill="#fff" opacity="0.7"></circle><circle cx="14" cy="58" r="0.7" fill="#fff" opacity="0.5"></circle><circle cx="22" cy="72" r="0.8" fill="#fff" opacity="0.6"></circle><path d="M110 64 L110.64 65.36 L112 66 L110.64 66.64 L110 68 L109.36 66.64 L108 66 L109.36 65.36 Z" fill="#fde047" stroke="#0f172a" stroke-width="0.6" opacity="1"></path><path d="M12 86.4 L12.512 87.488 L13.6 88 L12.512 88.512 L12 89.6 L11.488 88.512 L10.4 88 L11.488 87.488 Z" fill="#fdba74" stroke="#0f172a" stroke-width="0.6" opacity="1"></path><ellipse cx="60" cy="134" rx="32" ry="4" fill="#0f172a" opacity="0.22"></ellipse><path d="M46 102 L44 132 L56 132 L58 102 Z" fill="#292524" stroke="#0f172a" stroke-width="2.4" stroke-linejoin="round"></path><path d="M62 102 L62 132 L74 132 L76 102 Z" fill="#292524" stroke="#0f172a" stroke-width="2.4" stroke-linejoin="round"></path><rect x="46" y="104" width="3" height="3" fill="#0f172a" opacity="0.6"></rect><rect x="52" y="108" width="3" height="3" fill="#0f172a" opacity="0.6"></rect><rect x="64" y="106" width="3" height="3" fill="#0f172a" opacity="0.6"></rect><rect x="70" y="110" width="3" height="3" fill="#0f172a" opacity="0.6"></rect><path d="M40 126 L60 126 Q62 130 58 133 L40 133 Q36 131 40 126 Z" fill="#fafaf9" stroke="#0f172a" stroke-width="1.6"></path><path d="M62 126 L80 126 Q83 130 79 133 L62 133 Q59 131 62 126 Z" fill="#fafaf9" stroke="#0f172a" stroke-width="1.6"></path><path d="M42 104 L80 104 L78 120 L44 120 Z" fill="#fafaf9" stroke="#0f172a" stroke-width="2.4" stroke-linejoin="round"></path><path d="M44 108 L78 108 M44 112 L78 112 M44 116 L78 116" stroke="#cbd5e1" stroke-width="0.8" stroke-linecap="round"></path><rect x="62" y="110" width="9" height="6" rx="0.6" fill="none" stroke="#0f172a" stroke-width="1.1"></rect><path d="M48 113 L56 113 L54 119 L46 119 Z" fill="#dc2626" stroke="#0f172a" stroke-width="1.2" stroke-linejoin="round"></path><path d="M40 76 Q34 96 42 106 L80 106 Q86 96 82 76 Q60 68 40 76 Z" fill="rgba(255,255,255,0.04)" stroke="#0f172a" stroke-width="2.6" stroke-linejoin="round"></path><circle cx="55" cy="84" r="1.4" fill="#0f172a" stroke="#0f172a" stroke-width="0.7"></circle><circle cx="55" cy="92" r="1.4" fill="#0f172a" stroke="#0f172a" stroke-width="0.7"></circle><circle cx="55" cy="100" r="1.4" fill="#0f172a" stroke="#0f172a" stroke-width="0.7"></circle><circle cx="65" cy="84" r="1.4" fill="#0f172a" stroke="#0f172a" stroke-width="0.7"></circle><circle cx="65" cy="92" r="1.4" fill="#0f172a" stroke="#0f172a" stroke-width="0.7"></circle><circle cx="65" cy="100" r="1.4" fill="#0f172a" stroke="#0f172a" stroke-width="0.7"></circle><path d="M48 76 L72 76 L70 84 L60 90 L50 84 Z" fill="#dc2626" stroke="#0f172a" stroke-width="1.8" stroke-linejoin="round"></path><path d="M60 82 L58 90 L62 90 Z" fill="#dc2626" stroke="#0f172a" stroke-width="1.3" stroke-linejoin="round"></path><path d="M52 80 L68 80" stroke="#fff" stroke-width="0.7" opacity="0.5"></path><path d="M28 80 Q20 94 30 104 L38 96 L34 80 Z" fill="rgba(255,255,255,0.04)" stroke="#0f172a" stroke-width="2.4" stroke-linejoin="round"></path><g transform="translate(20,96)"><rect x="-1.4" y="-12" width="2.8" height="12" rx="1" fill="#92400e" stroke="#0f172a" stroke-width="1.4"></rect><path d="M-5 -2 Q-6 6 0 8" fill="none" stroke="#cbd5e1" stroke-width="1.6"></path><path d="M5 -2 Q6 6 0 8" fill="none" stroke="#cbd5e1" stroke-width="1.6"></path><path d="M0 -2 L0 8" fill="none" stroke="#cbd5e1" stroke-width="1.6"></path><path d="M-3 -1 Q-3 6 0 7" fill="none" stroke="#94a3b8" stroke-width="1"></path><path d="M3 -1 Q3 6 0 7" fill="none" stroke="#94a3b8" stroke-width="1"></path><circle cx="-2" cy="10" r="1.2" fill="#fff" stroke="#0f172a" stroke-width="0.5"></circle><circle cx="2" cy="12" r="1" fill="#fff" stroke="#0f172a" stroke-width="0.5"></circle><circle cx="-4" cy="14" r="0.8" fill="#fff"></circle></g><path d="M88 78 Q98 90 88 102 L80 100 Q82 88 82 78 Z" fill="rgba(255,255,255,0.04)" stroke="#0f172a" stroke-width="2.4" stroke-linejoin="round"></path><g transform="translate(96,98)"><ellipse cx="0" cy="0" rx="14" ry="5" fill="#292524" stroke="#0f172a" stroke-width="2.2"></ellipse><ellipse cx="0" cy="-2" rx="12" ry="3" fill="#57534e" stroke="#0f172a" stroke-width="1.8"></ellipse><path d="M-6 -2 Q-4 -10 0 -8 Q4 -14 6 -4" fill="#f97316" stroke="#0f172a" stroke-width="1.4" stroke-linejoin="round"></path><path d="M-3 -4 Q-1 -8 1 -6 Q3 -11 4 -4" fill="#fde047" stroke="none"></path><rect x="14" y="-1.5" width="14" height="3" rx="1.2" fill="#451a03" stroke="#0f172a" stroke-width="1.6"></rect><circle cx="28" cy="0" r="2" fill="#92400e" stroke="#0f172a" stroke-width="1.4"></circle></g><rect x="55" y="70" width="10" height="8" fill="#fdba74" stroke="#0f172a" stroke-width="2"></rect><g><rect x="40" y="14" width="40" height="6" fill="#fafaf9" stroke="#0f172a" stroke-width="2.2"></rect><path d="M38 14 Q32 6 42 2 Q44 0 50 2 Q54 0 60 0 Q66 0 70 2 Q76 0 78 2 Q88 6 82 14 Z" fill="#fafaf9" stroke="#0f172a" stroke-width="2.4" stroke-linejoin="round"></path><path d="M44 8 Q44 12 46 14 M52 4 Q52 10 54 14 M60 2 Q60 10 60 14 M68 4 Q68 10 66 14 M76 8 Q76 12 74 14" stroke="#0f172a" stroke-width="0.7" stroke-linecap="round" opacity="0.45"></path><path d="M28 52 C28 24 42 14 60 14 C78 14 92 26 92 52 V68 C92 76 84 80 76 78 C70 82 50 82 44 78 C34 80 28 72 28 64 Z" fill="url(#b15_hair)" stroke="#0f172a" stroke-width="2.4"></path><ellipse cx="60" cy="48" rx="22" ry="24" fill="url(#b15_face)" stroke="#0f172a" stroke-width="2.4"></ellipse><path d="M32 46 C34 28 46 18 60 18 C74 18 86 30 88 46 C78 36 66 28 54 30 C42 34 36 40 32 46 Z" fill="url(#b15_hairFront)" stroke="#0f172a" stroke-width="2.2" stroke-linejoin="round"></path><path d="M42 42 L56 46" stroke="#0f172a" stroke-width="2.4" stroke-linecap="round"></path><path d="M64 46 L78 42" stroke="#0f172a" stroke-width="2.4" stroke-linecap="round"></path><ellipse cx="50" cy="54" rx="6.8" ry="7.5" fill="url(#b15_eye)" stroke="#0f172a" stroke-width="1.5"></ellipse><ellipse cx="70" cy="54" rx="6.8" ry="7.5" fill="url(#b15_eye)" stroke="#0f172a" stroke-width="1.5"></ellipse><g><circle cx="50" cy="54" r="2.9" fill="#0a1330"></circle><circle cx="70" cy="54" r="2.9" fill="#0a1330"></circle><circle cx="48.5" cy="51.5" r="2.1" fill="#fff"></circle><circle cx="68.5" cy="51.5" r="2.1" fill="#fff"></circle><circle cx="52" cy="56.5" r="1.3" fill="#fed7aa"></circle><circle cx="72" cy="56.5" r="1.3" fill="#fed7aa"></circle></g><path d="M44 68 Q48 72 56 68 Q60 70 64 68 Q72 72 76 68" stroke="#0f172a" stroke-width="2.4" stroke-linecap="round" fill="none"></path><path d="M54 66 L66 66" stroke="#451a03" stroke-width="2.4" stroke-linecap="round"></path><ellipse cx="43" cy="62" rx="3.2" ry="1.7" fill="#ff3ba8" opacity="0.42"></ellipse><ellipse cx="77" cy="62" rx="3.2" ry="1.7" fill="#ff3ba8" opacity="0.42"></ellipse></g></svg>
