<?xml version="1.0" encoding="UTF-8"?>
<svg xmlns="http://www.w3.org/2000/svg" viewBox="0 0 120 140" class="block" style="width:120px; height:140px" aria-hidden="true" role="img"><defs><linearGradient id="b16_hair" x1="30" x2="90" y1="8" y2="62" gradientUnits="userSpaceOnUse"><stop stop-color="#06051a"></stop><stop offset="0.5" stop-color="#075985"></stop><stop offset="1" stop-color="#0f172a"></stop></linearGradient><linearGradient id="b16_hairFront" x1="34" x2="86" y1="12" y2="36" gradientUnits="userSpaceOnUse"><stop stop-color="#bae6fd"></stop><stop offset="0.45" stop-color="#38bdf8"></stop><stop offset="1" stop-color="#1d4ed8"></stop></linearGradient><linearGradient id="b16_face" x1="38" x2="82" y1="28" y2="70" gradientUnits="userSpaceOnUse"><stop stop-color="#ffedd5"></stop><stop offset="0.55" stop-color="#fdba74"></stop><stop offset="1" stop-color="#c2410c"></stop></linearGradient><linearGradient id="b16_eye" x1="46" x2="74" y1="46" y2="60" gradientUnits="userSpaceOnUse"><stop stop-color="#020617"></stop><stop offset="0.45" stop-color="#7c3aed"></stop><stop offset="1" stop-color="#38bdf8"></stop></linearGradient><linearGradient id="b16_suit" x1="32" x2="88" y1="76" y2="118" gradientUnits="userSpaceOnUse"><stop stop-color="#e2e8f0"></stop><stop offset="0.55" stop-color="#94a3b8"></stop><stop offset="1" stop-color="#334155"></stop></linearGradient><linearGradient id="b16_visor" x1="34" x2="86" y1="34" y2="62" gradientUnits="userSpaceOnUse"><stop stop-color="#0a1330"></stop><stop offset="0.5" stop-color="#1e1b4b"></stop><stop offset="1" stop-color="#0c4a6e"></stop></linearGradient><radialGradient id="b16_earth" cx="50%" cy="40%" r="50%"><stop offset="0%" stop-color="#7dd3fc"></stop><stop offset="50%" stop-color="#0284c7"></stop><stop offset="100%" stop-color="#1e3a8a"></stop></radialGradient></defs><g opacity="0.85"><circle cx="14" cy="14" r="0.7" fill="#fde047"></circle><circle cx="108" cy="12" r="0.7" fill="#fde047"></circle><circle cx="16" cy="38" r="0.7" fill="#fde047"></circle><circle cx="110" cy="40" r="0.7" fill="#fde047"></circle><circle cx="10" cy="90" r="0.7" fill="#fde047"></circle><circle cx="112" cy="96" r="0.7" fill="#fde047"></circle><circle cx="22" cy="116" r="0.7" fill="#fde047"></circle><circle cx="104" cy="120" r="0.7" fill="#fde047"></circle><path d="M108 68 L108.64 69.36 L110 70 L108.64 70.64 L108 72 L107.36 70.64 L106 70 L107.36 69.36 Z" fill="#fde047" stroke="#0f172a" stroke-width="0.6" opacity="1"></path><path d="M12 68 L12.64 69.36 L14 70 L12.64 70.64 L12 72 L11.36 70.64 L10 70 L11.36 69.36 Z" fill="#fde047" stroke="#0f172a" stroke-width="0.6" opacity="1"></path><g transform="translate(108,110)"><circle cx="0" cy="0" r="4" fill="#fb923c" stroke="#0f172a" stroke-width="0.8" opacity="0.85"></circle><ellipse cx="0" cy="0" rx="6" ry="1.6" fill="none" stroke="#fde047" stroke-width="0.6" transform="rotate(-20)"></ellipse></g><path d="M0 26 Q20 22 40 26" fill="none" stroke="#7c3aed" stroke-width="0.6" opacity="0.4"></path><path d="M80 124 Q100 120 120 124" fill="none" stroke="#38bdf8" stroke-width="0.6" opacity="0.4"></path></g><ellipse cx="60" cy="134" rx="34" ry="4" fill="#0f172a" opacity="0.24"></ellipse><path d="M44 104 L42 132 L54 132 L56 104 Z" fill="#475569" stroke="#0f172a" stroke-width="2.4" stroke-linejoin="round"></path><path d="M62 104 L62 132 L76 132 L78 104 Z" fill="#475569" stroke="#0f172a" stroke-width="2.4" stroke-linejoin="round"></path><path d="M40 128 L60 128 Q62 132 58 134 L40 134 Q36 132 40 128 Z" fill="#cbd5e1" stroke="#0f172a" stroke-width="1.6"></path><path d="M62 128 L80 128 Q83 132 80 134 L62 134 Q59 132 62 128 Z" fill="#cbd5e1" stroke="#0f172a" stroke-width="1.6"></path><path d="M42 131 L58 131 M64 131 L78 131" stroke="#0f172a" stroke-width="0.6" stroke-dasharray="1 1"></path><path d="M36 78 Q30 100 42 112 L80 112 Q90 100 86 78 Q60 68 36 78 Z" fill="url(#b16_suit)" stroke="#0f172a" stroke-width="2.6" stroke-linejoin="round"></path><rect x="38" y="76" width="44" height="3" fill="#7c3aed" opacity="0.4"></rect><path d="M44 102 Q60 105 76 102" stroke="#0f172a" stroke-width="1.4" stroke-linecap="round" opacity="0.55"></path><rect x="44" y="84" width="8" height="6" rx="1" fill="#1d4ed8" stroke="#0f172a" stroke-width="1"></rect><path d="M45 87 L51 87 M45 88.5 L48 88.5" stroke="#fff" stroke-width="0.5"></path><circle cx="49" cy="85.5" r="0.6" fill="#fff"></circle><rect x="68" y="84" width="9" height="7" rx="1" fill="#38bdf8" stroke="#0f172a" stroke-width="1"></rect><circle cx="72.5" cy="87.5" r="2" fill="none" stroke="#fde047" stroke-width="0.7"></circle><path d="M72.5 85.5 L72.5 89.5" stroke="#fde047" stroke-width="0.6"></path><rect x="48" y="94" width="24" height="10" rx="2" fill="#7c3aed" stroke="#0f172a" stroke-width="2"></rect><circle cx="54" cy="98" r="1.8" fill="#38bdf8" stroke="#0f172a" stroke-width="0.9"></circle><circle cx="60" cy="98" r="1.8" fill="#fde047" stroke="#0f172a" stroke-width="0.9"></circle><circle cx="66" cy="98" r="1.8" fill="#dc2626" stroke="#0f172a" stroke-width="0.9"></circle><rect x="50" y="101" width="20" height="1.6" rx="0.4" fill="#0f172a"></rect><rect x="50" y="101" width="14" height="1.6" rx="0.4" fill="#22c55e"></rect><path d="M28 84 Q22 96 32 104 L38 96 Q34 88 32 80 Z" fill="url(#b16_suit)" stroke="#0f172a" stroke-width="2.4" stroke-linejoin="round"></path><g transform="translate(20,98)"><circle cx="0" cy="0" r="6" fill="url(#b16_earth)" stroke="#0f172a" stroke-width="1.6"></circle><path d="M-4 -2 Q-1 -3 2 -1 Q4 1 1 3 Q-2 4 -4 2" fill="#16a34a" opacity="0.85"></path><ellipse cx="0" cy="0" rx="8" ry="1.6" fill="none" stroke="#38bdf8" stroke-width="0.7"></ellipse><circle cx="0" cy="0" r="9" fill="none" stroke="#38bdf8" stroke-width="0.4" opacity="0.4"></circle></g><path d="M88 80 Q98 92 90 104 L82 100 Q84 88 82 80 Z" fill="url(#b16_suit)" stroke="#0f172a" stroke-width="2.4" stroke-linejoin="round"></path><g transform="translate(96,86)"><rect x="-0.8" y="-2" width="1.6" height="20" fill="#475569" stroke="#0f172a" stroke-width="1.2"></rect><path d="M0.5 -1 L14 -1 L12 5 L0.5 5 Z" fill="#38bdf8" stroke="#0f172a" stroke-width="1.4" stroke-linejoin="round"></path><path d="M3 1 L11 1" stroke="#fde047" stroke-width="0.8"></path><path d="M3 3 L9 3" stroke="#fff" stroke-width="0.6"></path></g><ellipse cx="60" cy="48" rx="38" ry="36" fill="#bae6fd" stroke="#0f172a" stroke-width="2.6" opacity="0.4"></ellipse><ellipse cx="60" cy="48" rx="34" ry="32" fill="url(#b16_visor)" stroke="#0f172a" stroke-width="2.2" opacity="0.55"></ellipse><g><path d="M32 54 C32 26 44 14 60 14 C76 14 88 28 88 54 V62 C88 70 82 74 74 72 C70 74 50 74 46 72 C38 74 32 68 32 60 Z" fill="url(#b16_hair)" stroke="#0f172a" stroke-width="2.4"></path><ellipse cx="60" cy="48" rx="21" ry="23" fill="url(#b16_face)" stroke="#0f172a" stroke-width="2.4"></ellipse><path d="M36 50 C38 30 48 20 60 20 C72 20 82 30 84 50 C74 40 64 28 52 32 C42 36 38 44 36 50 Z" fill="url(#b16_hairFront)" stroke="#0f172a" stroke-width="2.2" stroke-linejoin="round"></path><path d="M44 42 L56 46" stroke="#0f172a" stroke-width="2.2" stroke-linecap="round"></path><path d="M64 46 L76 42" stroke="#0f172a" stroke-width="2.2" stroke-linecap="round"></path><ellipse cx="50" cy="52" rx="6.4" ry="7" fill="url(#b16_eye)" stroke="#0f172a" stroke-width="1.5"></ellipse><ellipse cx="70" cy="52" rx="6.4" ry="7" fill="url(#b16_eye)" stroke="#0f172a" stroke-width="1.5"></ellipse><g><circle cx="50" cy="52" r="2.7" fill="#0a1330"></circle><circle cx="70" cy="52" r="2.7" fill="#0a1330"></circle><circle cx="48.5" cy="50" r="1.9" fill="#fff"></circle><circle cx="68.5" cy="50" r="1.9" fill="#fff"></circle><circle cx="52" cy="54.5" r="1.2" fill="#a5b4fc"></circle><circle cx="72" cy="54.5" r="1.2" fill="#a5b4fc"></circle></g><path d="M55 64 Q60 67 65 64" stroke="#0f172a" stroke-width="2" stroke-linecap="round" fill="none"></path><ellipse cx="44" cy="58" rx="3" ry="1.6" fill="#ff3ba8" opacity="0.38"></ellipse><ellipse cx="76" cy="58" rx="3" ry="1.6" fill="#ff3ba8" opacity="0.38"></ellipse></g><path d="M30 50 Q60 22 90 50" fill="none" stroke="#fff" stroke-width="2" stroke-linecap="round" opacity="0.6"></path><path d="M32 56 Q60 30 86 56" fill="none" stroke="#fff" stroke-width="0.8" stroke-linecap="round" opacity="0.4"></path><circle cx="36" cy="40" r="0.6" fill="#fde047" opacity="0.9"></circle><circle cx="80" cy="38" r="0.6" fill="#fde047" opacity="0.9"></circle><circle cx="44" cy="32" r="0.5" fill="#fde047" opacity="0.8"></circle><circle cx="76" cy="30" r="0.5" fill="#fde047" opacity="0.8"></circle><path d="M86 60 a4 4 0 0 0 -3 5 a3.5 3.5 0 0 1 3 -5" fill="#7dd3fc" opacity="0.55"></path></svg>
