<?xml version="1.0" encoding="UTF-8"?>
<svg xmlns="http://www.w3.org/2000/svg" viewBox="0 0 120 140" class="block" style="width:120px; height:140px" aria-hidden="true" role="img"><defs><linearGradient id="b17_hair" x1="30" x2="90" y1="10" y2="70" gradientUnits="userSpaceOnUse"><stop stop-color="#3b0764"></stop><stop offset="0.5" stop-color="#581c87"></stop><stop offset="1" stop-color="#0f172a"></stop></linearGradient><linearGradient id="b17_hairFront" x1="32" x2="88" y1="18" y2="48" gradientUnits="userSpaceOnUse"><stop stop-color="#fae8ff"></stop><stop offset="0.45" stop-color="#8b5cf6"></stop><stop offset="1" stop-color="#c026d3"></stop></linearGradient><linearGradient id="b17_face" x1="38" x2="82" y1="24" y2="74" gradientUnits="userSpaceOnUse"><stop stop-color="#ffedd5"></stop><stop offset="0.55" stop-color="#fdba74"></stop><stop offset="1" stop-color="#9a3412"></stop></linearGradient><linearGradient id="b17_eye" x1="46" x2="74" y1="44" y2="62" gradientUnits="userSpaceOnUse"><stop stop-color="#020617"></stop><stop offset="0.45" stop-color="#c026d3"></stop><stop offset="1" stop-color="#e9d5ff"></stop></linearGradient><linearGradient id="b17_robe" x1="32" x2="88" y1="72" y2="126" gradientUnits="userSpaceOnUse"><stop stop-color="#c026d3"></stop><stop offset="0.55" stop-color="#8b5cf6"></stop><stop offset="1" stop-color="#1e1b4b"></stop></linearGradient><radialGradient id="b17_orb" cx="50%" cy="40%" r="55%"><stop offset="0%" stop-color="#fae8ff"></stop><stop offset="50%" stop-color="#8b5cf6"></stop><stop offset="100%" stop-color="#c026d3"></stop></radialGradient></defs><path d="M106 17.6 L106.768 19.232 L108.4 20 L106.768 20.768 L106 22.4 L105.232 20.768 L103.6 20 L105.232 19.232 Z" fill="#8b5cf6" stroke="#0f172a" stroke-width="0.6" opacity="1"></path><path d="M12 34 L12.64 35.36 L14 36 L12.64 36.64 L12 38 L11.36 36.64 L10 36 L11.36 35.36 Z" fill="#8b5cf6" stroke="#0f172a" stroke-width="0.6" opacity="1"></path><path d="M108 46.2 L108.576 47.424 L109.8 48 L108.576 48.576 L108 49.8 L107.424 48.576 L106.2 48 L107.424 47.424 Z" fill="#fde047" stroke="#0f172a" stroke-width="0.6" opacity="1"></path><g opacity="0.9"><path d="M14 56.4 L14 59.6" stroke="#8b5cf6" stroke-width="0.9" stroke-linecap="round"></path><path d="M12.4 58 L15.6 58" stroke="#8b5cf6" stroke-width="0.9" stroke-linecap="round"></path><circle cx="14" cy="58" r="0.6" fill="#8b5cf6"></circle></g><g opacity="0.9"><path d="M110 92.4 L110 95.6" stroke="#c026d3" stroke-width="0.9" stroke-linecap="round"></path><path d="M108.4 94 L111.6 94" stroke="#c026d3" stroke-width="0.9" stroke-linecap="round"></path><circle cx="110" cy="94" r="0.6" fill="#c026d3"></circle></g><path d="M16 102.2 L16.576 103.424 L17.8 104 L16.576 104.576 L16 105.8 L15.424 104.576 L14.2 104 L15.424 103.424 Z" fill="#fde047" stroke="#0f172a" stroke-width="0.6" opacity="1"></path><g opacity="0.6" stroke="#8b5cf6" stroke-width="0.9" stroke-linecap="round" fill="none"><path d="M105 78 L109 78 L107 82"></path><path d="M14 76 L18 80 M18 76 L14 80"></path></g><path d="M104 110 L100 116 L104 116 L100 122" fill="none" stroke="#fde047" stroke-width="1.4" stroke-linecap="round" stroke-linejoin="round"></path><ellipse cx="60" cy="134" rx="34" ry="4" fill="#0f172a" opacity="0.24"></ellipse><path d="M44 100 L48 132 L58 132 L54 100 Z" fill="#312e81" stroke="#0f172a" stroke-width="2.4" stroke-linejoin="round"></path><path d="M64 100 L66 132 L76 132 L72 100 Z" fill="#312e81" stroke="#0f172a" stroke-width="2.4" stroke-linejoin="round"></path><path d="M48 128 L58 128 Q60 133 56 134 L42 134 Q38 132 42 128 Q46 124 48 128" fill="#451a03" stroke="#0f172a" stroke-width="1.4"></path><path d="M66 128 L76 128 Q82 132 80 134 L66 134 Q60 133 62 128 Q66 124 66 128" fill="#451a03" stroke="#0f172a" stroke-width="1.4"></path><circle cx="44" cy="132" r="0.8" fill="#8b5cf6"></circle><circle cx="78" cy="132" r="0.8" fill="#8b5cf6"></circle><path d="M34 76 Q28 102 38 118 L84 118 Q92 102 86 76 Q60 64 34 76 Z" fill="url(#b17_robe)" stroke="#0f172a" stroke-width="2.6" stroke-linejoin="round"></path><path d="M38 118 L84 118" stroke="#fde047" stroke-width="1.4" stroke-linecap="round"></path><g fill="#fde047" stroke="#0f172a" stroke-width="0.4"><circle cx="44" cy="116" r="0.8"></circle><circle cx="52" cy="116" r="0.8"></circle><circle cx="60" cy="116" r="0.8"></circle><circle cx="68" cy="116" r="0.8"></circle><circle cx="76" cy="116" r="0.8"></circle></g><path d="M40 94 Q60 102 80 94" stroke="#92400e" stroke-width="2.4" stroke-linecap="round" fill="none"></path><circle cx="44" cy="96" r="1" fill="#fde047" stroke="#0f172a" stroke-width="0.5"></circle><rect x="48" y="96" width="6" height="8" rx="1.2" fill="#78350f" stroke="#0f172a" stroke-width="1.1"></rect><rect x="66" y="96" width="6" height="8" rx="1.2" fill="#78350f" stroke="#0f172a" stroke-width="1.1"></rect><path d="M58 100 L60 106 L62 100 Z" fill="#8b5cf6" stroke="#0f172a" stroke-width="0.8"></path><path d="M28 78 Q18 96 30 108 L36 100 Q32 84 30 74 Z" fill="url(#b17_robe)" stroke="#0f172a" stroke-width="2.4" stroke-linejoin="round"></path><g transform="translate(16,52)"><rect x="-1.6" y="0" width="3.2" height="74" rx="1.6" fill="#57534e" stroke="#0f172a" stroke-width="1.6"></rect><path d="M-1 8 L1 8 M-1 24 L1 24 M-1 40 L1 40 M-1 56 L1 56" stroke="#0f172a" stroke-width="0.6"></path><path d="M-6 -2 L0 4 L6 -2 L0 -8 Z" fill="#c026d3" stroke="#0f172a" stroke-width="1.6" stroke-linejoin="round"></path><circle cx="0" cy="-8" r="9" fill="url(#b17_orb)" stroke="#0f172a" stroke-width="2.2"></circle><circle cx="-2" cy="-10" r="2" fill="#fff" opacity="0.6"></circle><g opacity="0.85" stroke="#8b5cf6" stroke-width="0.9" stroke-linecap="round"><path d="M-9 -18 L-12 -24"></path><path d="M9 -18 L12 -24"></path><path d="M0 -20 L0 -26"></path><path d="M-12 -8 L-18 -8"></path><path d="M12 -8 L18 -8"></path></g></g><path d="M88 82 Q98 96 90 110 L82 104 Q84 90 82 80 Z" fill="url(#b17_robe)" stroke="#0f172a" stroke-width="2.4" stroke-linejoin="round"></path><g transform="translate(96,100)"><path d="M-12 -6 L12 -6 L12 8 L-12 8 Z" fill="#fef3c7" stroke="#0f172a" stroke-width="2" stroke-linejoin="round"></path><path d="M0 -6 L0 8" stroke="#0f172a" stroke-width="1.4"></path><path d="M-12 -6 L-12 8 M12 -6 L12 8" stroke="#92400e" stroke-width="0.8"></path><path d="M-9 -3 L-3 -3 M-9 -1 L-3 -1 M-9 1 L-3 1 M-9 3 L-3 3" stroke="#0f172a" stroke-width="0.5"></path><path d="M3 -3 L9 -3 M3 -1 L9 -1 M3 1 L9 1 M3 3 L9 3" stroke="#0f172a" stroke-width="0.5"></path><circle cx="6" cy="5.5" r="1.6" fill="none" stroke="#c026d3" stroke-width="0.7"></circle><path d="M6 4 L6 7 M4.5 5.5 L7.5 5.5" stroke="#8b5cf6" stroke-width="0.6"></path></g><rect x="55" y="70" width="10" height="8" fill="#fdba74" stroke="#0f172a" stroke-width="2"></rect><g><path d="M46 6 L58 0 Q62 -1 66 1 L74 6 L70 16 L50 16 Z" fill="#c026d3" stroke="#0f172a" stroke-width="2.4" stroke-linejoin="round"></path><path d="M48 8 L60 2 L72 8" fill="#8b5cf6" stroke="#0f172a" stroke-width="2" stroke-linejoin="round" opacity="0.9"></path><path d="M58 -6 a3 3 0 1 0 -4 5 a2.5 2.5 0 0 1 4 -5" fill="#fde047" stroke="#0f172a" stroke-width="0.7"></path><circle cx="68" cy="-2" r="0.7" fill="#fde047"></circle><circle cx="55" cy="4" r="0.7" fill="#fde047"></circle><circle cx="68" cy="6" r="0.7" fill="#fde047"></circle><rect x="46" y="12" width="28" height="4" fill="#1e1b4b" stroke="#0f172a" stroke-width="1.6"></rect><path d="M60 12 L57 17 L60 22 L63 17 Z" fill="#8b5cf6" stroke="#0f172a" stroke-width="1.2" stroke-linejoin="round"></path><path d="M30 52 C30 26 44 12 60 12 C76 12 90 26 90 52 V66 C90 74 84 78 76 76 C70 80 50 80 44 76 C36 78 30 72 30 64 Z" fill="url(#b17_hair)" stroke="#0f172a" stroke-width="2.4"></path><ellipse cx="60" cy="48" rx="22" ry="24" fill="url(#b17_face)" stroke="#0f172a" stroke-width="2.4"></ellipse><path d="M32 50 C34 30 46 16 60 16 C74 16 86 30 88 50 C78 36 66 26 54 30 C42 36 36 44 32 50 Z" fill="url(#b17_hairFront)" stroke="#0f172a" stroke-width="2.2" stroke-linejoin="round"></path><path d="M42 44 L56 48" stroke="#0f172a" stroke-width="2.3" stroke-linecap="round"></path><path d="M64 48 L78 44" stroke="#0f172a" stroke-width="2.3" stroke-linecap="round"></path><ellipse cx="50" cy="54" rx="6.6" ry="7.3" fill="url(#b17_eye)" stroke="#0f172a" stroke-width="1.5"></ellipse><ellipse cx="70" cy="54" rx="6.6" ry="7.3" fill="url(#b17_eye)" stroke="#0f172a" stroke-width="1.5"></ellipse><g><circle cx="50" cy="54" r="2.8" fill="#0a1330"></circle><circle cx="70" cy="54" r="2.8" fill="#0a1330"></circle><circle cx="48.5" cy="51.5" r="2" fill="#fff"></circle><circle cx="68.5" cy="51.5" r="2" fill="#fff"></circle><circle cx="52" cy="56" r="1.2" fill="#f5d0fe"></circle><circle cx="72" cy="56" r="1.2" fill="#f5d0fe"></circle></g><path d="M48 64 Q60 80 72 64 L70 80 Q60 92 50 80 Z" fill="#f8fafc" stroke="#0f172a" stroke-width="2" stroke-linejoin="round"></path><path d="M52 70 L52 82 M60 72 L60 86 M68 70 L68 82" stroke="#cbd5e1" stroke-width="0.7" stroke-linecap="round"></path><ellipse cx="43" cy="62" rx="3.2" ry="1.7" fill="#ff3ba8" opacity="0.4"></ellipse><ellipse cx="77" cy="62" rx="3.2" ry="1.7" fill="#ff3ba8" opacity="0.4"></ellipse></g></svg>
