<?xml version="1.0" encoding="UTF-8"?>
<svg xmlns="http://www.w3.org/2000/svg" viewBox="0 0 120 140" class="block" style="width:120px; height:140px" aria-hidden="true" role="img"><defs><linearGradient id="b18_hair" x1="30" x2="90" y1="8" y2="62" gradientUnits="userSpaceOnUse"><stop stop-color="#422006"></stop><stop offset="0.5" stop-color="#78350f"></stop><stop offset="1" stop-color="#1c1917"></stop></linearGradient><linearGradient id="b18_hairFront" x1="34" x2="86" y1="14" y2="40" gradientUnits="userSpaceOnUse"><stop stop-color="#f0d8ff"></stop><stop offset="0.45" stop-color="#d83bff"></stop><stop offset="1" stop-color="#b45309"></stop></linearGradient><linearGradient id="b18_face" x1="38" x2="82" y1="22" y2="74" gradientUnits="userSpaceOnUse"><stop stop-color="#ffedd5"></stop><stop offset="0.55" stop-color="#fdba74"></stop><stop offset="1" stop-color="#c2410c"></stop></linearGradient><linearGradient id="b18_eye" x1="46" x2="74" y1="42" y2="62" gradientUnits="userSpaceOnUse"><stop stop-color="#020617"></stop><stop offset="0.45" stop-color="#ef4444"></stop><stop offset="1" stop-color="#d83bff"></stop></linearGradient><linearGradient id="b18_hoodie" x1="32" x2="88" y1="72" y2="114" gradientUnits="userSpaceOnUse"><stop stop-color="#334155"></stop><stop offset="1" stop-color="#0f172a"></stop></linearGradient></defs><path d="M0 116 Q30 110 60 116 Q90 122 120 116" fill="none" stroke="#fff" stroke-width="0.8" opacity="0.25"></path><path d="M0 122 Q30 118 60 122 Q90 126 120 122" fill="none" stroke="#fff" stroke-width="0.6" opacity="0.18"></path><circle cx="14" cy="108" r="0.8" fill="#fff" opacity="0.5"></circle><circle cx="22" cy="114" r="0.6" fill="#fff" opacity="0.4"></circle><circle cx="106" cy="110" r="0.8" fill="#fff" opacity="0.5"></circle><circle cx="98" cy="116" r="0.6" fill="#fff" opacity="0.4"></circle><path d="M108 29.8 L108.704 31.296 L110.2 32 L108.704 32.704 L108 34.2 L107.296 32.704 L105.8 32 L107.296 31.296 Z" fill="#d83bff" stroke="#0f172a" stroke-width="0.6" opacity="1"></path><path d="M14 28 L14.64 29.36 L16 30 L14.64 30.64 L14 32 L13.36 30.64 L12 30 L13.36 29.36 Z" fill="#fde047" stroke="#0f172a" stroke-width="0.6" opacity="1"></path><ellipse cx="60" cy="134" rx="34" ry="4" fill="#0f172a" opacity="0.25"></ellipse><path d="M40 104 L34 132 L48 132 L52 106 Z" fill="#ef4444" stroke="#0f172a" stroke-width="2.4" stroke-linejoin="round"></path><path d="M66 106 L70 132 L86 132 L78 104 Z" fill="#ef4444" stroke="#0f172a" stroke-width="2.4" stroke-linejoin="round"></path><path d="M42 128 L50 128 M70 128 L82 128" stroke="rgba(255,255,255,0.04)" stroke-width="1.4" stroke-linecap="round" opacity="0.8"></path><path d="M34 126 L52 126 Q54 130 50 134 L34 134 Q30 132 34 126 Z" fill="#0f172a" stroke="#0f172a" stroke-width="1.6"></path><path d="M68 126 L86 126 Q88 130 84 134 L68 134 Q66 132 68 126 Z" fill="#0f172a" stroke="#0f172a" stroke-width="1.6"></path><path d="M34 132 L52 132 M68 132 L86 132" stroke="#fff" stroke-width="1.2"></path><path d="M40 128 L48 128 M40 130 L48 130 M72 128 L80 128 M72 130 L80 130" stroke="#fff" stroke-width="0.7" stroke-linecap="round"></path><path d="M38 76 Q32 98 42 110 L80 110 Q88 98 82 76 Q60 66 38 76 Z" fill="url(#b18_hoodie)" stroke="#0f172a" stroke-width="2.6" stroke-linejoin="round"></path><path d="M54 76 L66 92 L60 102 L54 92 Z" fill="#1e293b" stroke="#0f172a" stroke-width="2" stroke-linejoin="round"></path><path d="M52 80 L68 80 L68 92 L52 92 Z" fill="#fafaf9" stroke="#0f172a" stroke-width="1.6"></path><path d="M56 84 L64 84 L64 88 L56 88 Z" fill="#d83bff" stroke="#0f172a" stroke-width="0.9"></path><path d="M58 86 L62 86" stroke="#fafaf9" stroke-width="1.2"></path><path d="M50 78 L48 86 M52 78 L48 86" stroke="#fafaf9" stroke-width="0.7"></path><path d="M68 78 L70 86 M70 78 L70 86" stroke="#fafaf9" stroke-width="0.7"></path><circle cx="48" cy="87" r="0.7" fill="#fafaf9"></circle><circle cx="70" cy="87" r="0.7" fill="#fafaf9"></circle><path d="M54 80 L54 100 M66 80 L66 100" stroke="#d83bff" stroke-width="1.2" stroke-dasharray="1 1"></path><path d="M40 96 L80 96 L78 104 L42 104 Z" fill="none" stroke="#0f172a" stroke-width="1.2" opacity="0.6"></path><path d="M28 82 Q18 96 30 106 L38 98 Q34 84 32 76 Z" fill="url(#b18_hoodie)" stroke="#0f172a" stroke-width="2.4" stroke-linejoin="round"></path><g transform="translate(18,84)"><rect x="-6" y="0" width="12" height="42" rx="3" fill="#92400e" stroke="#0f172a" stroke-width="2"></rect><rect x="-4" y="4" width="8" height="6" fill="#d83bff" stroke="#0f172a" stroke-width="0.7"></rect><path d="M-3 14 L3 14 L0 22 Z" fill="#fde047" stroke="#0f172a" stroke-width="0.7"></path><circle cx="0" cy="28" r="2" fill="#fff" stroke="#0f172a" stroke-width="0.7"></circle><path d="M-4 34 L4 34 M-4 36 L4 36" stroke="#d83bff" stroke-width="0.7"></path><rect x="-5" y="42" width="10" height="2" rx="0.5" fill="#94a3b8" stroke="#0f172a" stroke-width="1"></rect><circle cx="-4" cy="46" r="2" fill="#fafaf9" stroke="#0f172a" stroke-width="1.2"></circle><circle cx="4" cy="46" r="2" fill="#fafaf9" stroke="#0f172a" stroke-width="1.2"></circle><rect x="-5" y="-2" width="10" height="2" rx="0.5" fill="#94a3b8" stroke="#0f172a" stroke-width="1"></rect></g><path d="M88 78 Q96 90 86 104 L80 98 Q82 84 80 76 Z" fill="url(#b18_hoodie)" stroke="#0f172a" stroke-width="2.4" stroke-linejoin="round"></path><rect x="86" y="96" width="6" height="2" rx="0.6" fill="#d83bff" stroke="#0f172a" stroke-width="0.7"></rect><rect x="86" y="99" width="6" height="2" rx="0.6" fill="#fde047" stroke="#0f172a" stroke-width="0.7"></rect><rect x="86" y="102" width="6" height="2" rx="0.6" fill="#ef4444" stroke="#0f172a" stroke-width="0.7"></rect><rect x="55" y="70" width="10" height="8" fill="#fdba74" stroke="#0f172a" stroke-width="2"></rect><g><path d="M28 30 Q60 8 92 30 L94 38 L26 38 Z" fill="#1c1917" stroke="#0f172a" stroke-width="2.4" stroke-linejoin="round"></path><rect x="26" y="36" width="68" height="6" fill="#ef4444" stroke="#0f172a" stroke-width="2"></rect><rect x="54" y="32" width="12" height="6" rx="1.4" fill="#fef3c7" stroke="#0f172a" stroke-width="1.4"></rect><path d="M56 36 L60 32 L64 36" stroke="#d83bff" stroke-width="1.2" stroke-linecap="round" stroke-linejoin="round" fill="none"></path><circle cx="60" cy="35" r="1" fill="#d83bff"></circle><path d="M32 22 L34 12 M44 16 L44 8 M60 12 L60 4 M76 16 L76 8 M88 22 L86 12" stroke="#451a03" stroke-width="0.6" opacity="0.7"></path><path d="M28 52 C28 26 42 16 60 16 C78 16 92 28 92 52 V64 C92 72 84 76 76 74 C70 78 50 78 44 74 C34 76 28 70 28 62 Z" fill="url(#b18_hair)" stroke="#0f172a" stroke-width="2.4"></path><ellipse cx="60" cy="48" rx="22" ry="24" fill="url(#b18_face)" stroke="#0f172a" stroke-width="2.4"></ellipse><path d="M34 50 C36 32 46 20 60 20 C74 20 86 32 88 50 C78 38 66 26 54 28 C42 34 38 44 34 50 Z" fill="url(#b18_hairFront)" stroke="#0f172a" stroke-width="2.2" stroke-linejoin="round"></path><path d="M42 46 L56 50" stroke="#0f172a" stroke-width="2.2" stroke-linecap="round"></path><path d="M64 50 L78 46" stroke="#0f172a" stroke-width="2.2" stroke-linecap="round"></path><ellipse cx="50" cy="54" rx="6.7" ry="7.5" fill="url(#b18_eye)" stroke="#0f172a" stroke-width="1.5"></ellipse><ellipse cx="70" cy="54" rx="6.7" ry="7.5" fill="url(#b18_eye)" stroke="#0f172a" stroke-width="1.5"></ellipse><g><circle cx="50" cy="54" r="2.9" fill="#0a1330"></circle><circle cx="70" cy="54" r="2.9" fill="#0a1330"></circle><circle cx="48.5" cy="51.5" r="2" fill="#fff"></circle><circle cx="68.5" cy="51.5" r="2" fill="#fff"></circle><circle cx="52" cy="56.5" r="1.2" fill="#fef08a"></circle><circle cx="72" cy="56.5" r="1.2" fill="#fef08a"></circle></g><path d="M40 58 Q38 64 36 72" stroke="#0f172a" stroke-width="0.9" stroke-linecap="round" fill="none"></path><circle cx="40" cy="56" r="0.9" fill="#fafaf9" stroke="#0f172a" stroke-width="0.6"></circle><path d="M80 58 Q82 64 84 72" stroke="#0f172a" stroke-width="0.9" stroke-linecap="round" fill="none"></path><circle cx="80" cy="56" r="0.9" fill="#fafaf9" stroke="#0f172a" stroke-width="0.6"></circle><path d="M54 68 Q60 72 66 68" stroke="#0f172a" stroke-width="2.2" stroke-linecap="round" fill="none"></path><ellipse cx="43" cy="62" rx="3.2" ry="1.7" fill="#ff3ba8" opacity="0.4"></ellipse><ellipse cx="77" cy="62" rx="3.2" ry="1.7" fill="#ff3ba8" opacity="0.4"></ellipse></g></svg>
