<?xml version="1.0" encoding="UTF-8"?>
<svg xmlns="http://www.w3.org/2000/svg" viewBox="0 0 120 140" class="block" style="width:120px; height:140px" aria-hidden="true" role="img"><defs><linearGradient id="b19_hair" x1="30" x2="90" y1="8" y2="62" gradientUnits="userSpaceOnUse"><stop stop-color="#0f172a"></stop><stop offset="0.55" stop-color="#1e293b"></stop><stop offset="1" stop-color="#020617"></stop></linearGradient><linearGradient id="b19_hairFront" x1="34" x2="86" y1="12" y2="40" gradientUnits="userSpaceOnUse"><stop stop-color="#e2e8f0"></stop><stop offset="0.45" stop-color="#94a3b8"></stop><stop offset="1" stop-color="#334155"></stop></linearGradient><linearGradient id="b19_face" x1="38" x2="82" y1="22" y2="74" gradientUnits="userSpaceOnUse"><stop stop-color="#ffedd5"></stop><stop offset="0.55" stop-color="#fdba74"></stop><stop offset="1" stop-color="#b45309"></stop></linearGradient><linearGradient id="b19_eye" x1="46" x2="74" y1="42" y2="62" gradientUnits="userSpaceOnUse"><stop stop-color="#020617"></stop><stop offset="0.45" stop-color="#475569"></stop><stop offset="1" stop-color="#0ea5e9"></stop></linearGradient><linearGradient id="b19_blazer" x1="32" x2="88" y1="72" y2="116" gradientUnits="userSpaceOnUse"><stop stop-color="#475569"></stop><stop offset="1" stop-color="#0f172a"></stop></linearGradient></defs><rect x="0" y="124" width="120" height="14" fill="#0a1330" stroke="#0f172a" stroke-width="1.4"></rect><rect x="0" y="124" width="120" height="2" fill="#0ea5e9"></rect><g fill="#fff" font-family="monospace" font-size="4.4" font-weight="700"><text x="2" y="135">BREAKING · LIVE · JAMEYE NEWS · BREAKING</text></g><g transform="translate(100,12)"><rect x="-12" y="-2" width="24" height="9" rx="1.6" fill="#0ea5e9" stroke="#0f172a" stroke-width="1.4"></rect><text x="0" y="4.5" text-anchor="middle" fill="#fff" font-family="monospace" font-size="5" font-weight="800">JE</text></g><g transform="translate(18,12)"><rect x="-10" y="-2" width="20" height="9" rx="1.6" fill="#dc2626" stroke="#0f172a" stroke-width="1.4"></rect><text x="0" y="4.5" text-anchor="middle" fill="#fff" font-family="monospace" font-size="4.6" font-weight="800">ON AIR</text><circle cx="-7" cy="2" r="1.4" fill="#fff"></circle></g><path d="M108 34.2 L108.576 35.424 L109.8 36 L108.576 36.576 L108 37.8 L107.424 36.576 L106.2 36 L107.424 35.424 Z" fill="#fde047" stroke="#0f172a" stroke-width="0.6" opacity="1"></path><path d="M14 54.4 L14.512 55.488 L15.6 56 L14.512 56.512 L14 57.6 L13.488 56.512 L12.4 56 L13.488 55.488 Z" fill="#0ea5e9" stroke="#0f172a" stroke-width="0.6" opacity="1"></path><ellipse cx="60" cy="120" rx="32" ry="3.5" fill="#0f172a" opacity="0.22"></ellipse><path d="M46 102 L44 118 L56 118 L58 102 Z" fill="#1e293b" stroke="#0f172a" stroke-width="2.4" stroke-linejoin="round"></path><path d="M62 102 L62 118 L74 118 L76 102 Z" fill="#1e293b" stroke="#0f172a" stroke-width="2.4" stroke-linejoin="round"></path><path d="M42 116 L60 116 Q62 119 58 121 L42 121 Q38 119 42 116 Z" fill="#0a0a14" stroke="#0f172a" stroke-width="1.4"></path><path d="M62 116 L80 116 Q83 119 80 121 L62 121 Q60 119 62 116 Z" fill="#0a0a14" stroke="#0f172a" stroke-width="1.4"></path><path d="M38 76 Q32 98 42 108 L80 108 Q88 98 82 76 Q60 68 38 76 Z" fill="url(#b19_blazer)" stroke="#0f172a" stroke-width="2.6" stroke-linejoin="round"></path><path d="M52 78 L60 86 L68 78 L66 96 L54 96 Z" fill="#fafaf9" stroke="#0f172a" stroke-width="2" stroke-linejoin="round"></path><path d="M58 84 L62 84 L64 90 L60 108 L56 90 Z" fill="#0ea5e9" stroke="#0f172a" stroke-width="1.6" stroke-linejoin="round"></path><path d="M58 84 L62 84 L63 87 L57 87 Z" fill="#475569" stroke="#0f172a" stroke-width="1"></path><circle cx="60" cy="96" r="0.9" fill="#fde047" stroke="#0f172a" stroke-width="0.5"></circle><path d="M44 76 L48 84 L52 80" fill="url(#b19_blazer)" stroke="#0f172a" stroke-width="1.6" stroke-linejoin="round"></path><path d="M76 76 L72 84 L68 80" fill="url(#b19_blazer)" stroke="#0f172a" stroke-width="1.6" stroke-linejoin="round"></path><path d="M68 90 L74 90 L73 96 L72 92 L70 96 L69 92 Z" fill="#fafaf9" stroke="#0f172a" stroke-width="1" stroke-linejoin="round"></path><circle cx="48" cy="86" r="1.2" fill="#0ea5e9" stroke="#0f172a" stroke-width="0.6"></circle><path d="M28 80 Q22 94 34 102 L40 94 Q36 84 34 76 Z" fill="url(#b19_blazer)" stroke="#0f172a" stroke-width="2.4" stroke-linejoin="round"></path><g transform="translate(22,98)"><rect x="-7" y="-3" width="14" height="10" rx="0.8" fill="#fef3c7" stroke="#0f172a" stroke-width="1.4"></rect><rect x="-8" y="-4" width="14" height="10" rx="0.8" fill="#fef3c7" stroke="#0f172a" stroke-width="1.4"></rect><rect x="-9" y="-5" width="14" height="10" rx="0.8" fill="#fef3c7" stroke="#0f172a" stroke-width="1.4"></rect><path d="M-7 -2 L3 -2 M-7 0 L3 0 M-7 2 L1 2" stroke="#0f172a" stroke-width="0.6"></path><circle cx="3" cy="3" r="0.7" fill="#0ea5e9"></circle></g><g transform="translate(92,72)"><path d="M6 0 L6 28 L-4 32 L-4 4 Z" fill="url(#b19_blazer)" stroke="#0f172a" stroke-width="2" stroke-linejoin="round"></path><rect x="0" y="-12" width="12" height="8" rx="1" fill="#0ea5e9" stroke="#0f172a" stroke-width="1.6"></rect><text x="6" y="-6" text-anchor="middle" fill="#fff" font-family="monospace" font-size="5" font-weight="800">JE</text><ellipse cx="6" cy="-16" rx="8" ry="9" fill="#0a1330" stroke="#0f172a" stroke-width="2.2"></ellipse><path d="M-1 -22 L13 -22 M-1 -20 L13 -20 M-1 -18 L13 -18 M-1 -16 L13 -16 M-1 -14 L13 -14 M-1 -12 L13 -12 M-1 -10 L13 -10" stroke="#475569" stroke-width="0.6"></path><ellipse cx="6" cy="-18" rx="3" ry="2" fill="#fff" opacity="0.3"></ellipse><path d="M-2 6 L10 6" stroke="#0ea5e9" stroke-width="2.4" stroke-linecap="round"></path></g><rect x="55" y="70" width="10" height="8" fill="#fdba74" stroke="#0f172a" stroke-width="2"></rect><g><circle cx="82" cy="50" r="2" fill="#cbd5e1" stroke="#0f172a" stroke-width="1.2"></circle><path d="M82 52 Q86 58 82 66 Q78 72 78 76" fill="none" stroke="#0f172a" stroke-width="0.9" stroke-linecap="round"></path></g><g><path d="M28 52 C28 24 42 12 60 12 C78 12 92 26 92 52 V66 C92 74 84 78 76 76 C70 80 50 80 44 76 C34 78 28 72 28 64 Z" fill="url(#b19_hair)" stroke="#0f172a" stroke-width="2.4"></path><ellipse cx="60" cy="48" rx="22" ry="24" fill="url(#b19_face)" stroke="#0f172a" stroke-width="2.4"></ellipse><path d="M32 48 C34 28 46 16 60 16 C74 16 86 28 88 48 C78 36 66 24 52 26 C40 32 36 42 32 48 Z" fill="url(#b19_hairFront)" stroke="#0f172a" stroke-width="2.2" stroke-linejoin="round"></path><path d="M40 30 Q56 18 80 22" stroke="#fff" stroke-width="0.8" stroke-linecap="round" opacity="0.5" fill="none"></path><path d="M42 42 L56 46" stroke="#0f172a" stroke-width="2.4" stroke-linecap="round"></path><path d="M64 46 L78 42" stroke="#0f172a" stroke-width="2.4" stroke-linecap="round"></path><ellipse cx="50" cy="52" rx="6.5" ry="7.5" fill="url(#b19_eye)" stroke="#0f172a" stroke-width="1.5"></ellipse><ellipse cx="70" cy="52" rx="6.5" ry="7.5" fill="url(#b19_eye)" stroke="#0f172a" stroke-width="1.5"></ellipse><g><circle cx="50" cy="52" r="2.8" fill="#0a1330"></circle><circle cx="70" cy="52" r="2.8" fill="#0a1330"></circle><circle cx="48.5" cy="49.5" r="2" fill="#fff"></circle><circle cx="68.5" cy="49.5" r="2" fill="#fff"></circle><circle cx="51.5" cy="54.5" r="1.2" fill="#5b8dff"></circle><circle cx="71.5" cy="54.5" r="1.2" fill="#5b8dff"></circle></g><path d="M54 66 Q60 70 66 66" stroke="#0f172a" stroke-width="2" stroke-linecap="round" fill="none"></path><ellipse cx="43" cy="60" rx="3.2" ry="1.7" fill="#ff3ba8" opacity="0.38"></ellipse><ellipse cx="77" cy="60" rx="3.2" ry="1.7" fill="#ff3ba8" opacity="0.38"></ellipse></g></svg>
