<?xml version="1.0" encoding="UTF-8"?>
<svg xmlns="http://www.w3.org/2000/svg" viewBox="0 0 120 140" class="block" style="width:120px; height:140px" aria-hidden="true" role="img"><defs><linearGradient id="b20_metal" x1="32" x2="88" y1="72" y2="118" gradientUnits="userSpaceOnUse"><stop stop-color="#d4d4d8"></stop><stop offset="0.5" stop-color="#71717a"></stop><stop offset="1" stop-color="#18181b"></stop></linearGradient><linearGradient id="b20_visor" x1="32" x2="88" y1="40" y2="58" gradientUnits="userSpaceOnUse"><stop stop-color="#0f172a"></stop><stop offset="0.55" stop-color="#1e293b"></stop><stop offset="1" stop-color="#020617"></stop></linearGradient><linearGradient id="b20_face" x1="32" x2="88" y1="22" y2="74" gradientUnits="userSpaceOnUse"><stop stop-color="#fafafa"></stop><stop offset="0.55" stop-color="#d4d4d8"></stop><stop offset="1" stop-color="#71717a"></stop></linearGradient><radialGradient id="b20_heart" cx="50%" cy="50%" r="60%"><stop offset="0%" stop-color="#fef08a"></stop><stop offset="50%" stop-color="#22c55e"></stop><stop offset="100%" stop-color="#14532d"></stop></radialGradient></defs><g opacity="0.55" stroke="#22c55e" stroke-width="0.6" fill="none"><path d="M0 30 L8 30 L8 22 L18 22"></path><path d="M120 26 L112 26 L112 18 L102 18"></path><circle cx="8" cy="22" r="0.7" fill="#22c55e" stroke="none"></circle><circle cx="112" cy="18" r="0.7" fill="#22c55e" stroke="none"></circle><path d="M0 96 L10 96 L10 104 L20 104"></path><path d="M120 100 L110 100 L110 108 L100 108"></path></g><g fill="#fde047" font-family="monospace" font-size="4" opacity="0.78"><text x="6" y="48">1</text><text x="11" y="60">0</text><text x="8" y="78">1</text><text x="108" y="50">0</text><text x="112" y="62">1</text><text x="106" y="76">0</text></g><path d="M106 86.2 L106.576 87.424 L107.8 88 L106.576 88.576 L106 89.8 L105.424 88.576 L104.2 88 L105.424 87.424 Z" fill="#fde047" stroke="#0f172a" stroke-width="0.6" opacity="1"></path><path d="M14 84.2 L14.576 85.424 L15.8 86 L14.576 86.576 L14 87.8 L13.424 86.576 L12.2 86 L13.424 85.424 Z" fill="#fde047" stroke="#0f172a" stroke-width="0.6" opacity="1"></path><ellipse cx="60" cy="134" rx="32" ry="4" fill="#0f172a" opacity="0.24"></ellipse><path d="M46 102 L46 130 L56 130 L56 102 Z" fill="#71717a" stroke="#0f172a" stroke-width="2.4" stroke-linejoin="round"></path><path d="M64 102 L64 130 L74 130 L74 102 Z" fill="#71717a" stroke="#0f172a" stroke-width="2.4" stroke-linejoin="round"></path><path d="M48 116 L54 116 M66 116 L72 116" stroke="#0f172a" stroke-width="1.6" stroke-linecap="round" opacity="0.7"></path><rect x="49" y="118" width="4" height="6" rx="0.8" fill="#a3a3a3" stroke="#0f172a" stroke-width="0.8"></rect><rect x="67" y="118" width="4" height="6" rx="0.8" fill="#a3a3a3" stroke="#0f172a" stroke-width="0.8"></rect><path d="M40 128 L60 128 L62 132 L40 132 Z" fill="#0a0a14" stroke="#0f172a" stroke-width="1.6" stroke-linejoin="round"></path><path d="M60 128 L80 128 L80 132 L58 132 Z" fill="#0a0a14" stroke="#0f172a" stroke-width="1.6" stroke-linejoin="round"></path><path d="M42 130 L60 130 M60 130 L78 130" stroke="#22c55e" stroke-width="0.7"></path><path d="M36 78 Q30 100 40 110 L80 110 Q90 100 84 78 Q60 68 36 78 Z" fill="url(#b20_metal)" stroke="#0f172a" stroke-width="2.6" stroke-linejoin="round"></path><path d="M60 76 L60 110" stroke="#0f172a" stroke-width="1.2" opacity="0.5"></path><path d="M40 92 L80 92" stroke="#0f172a" stroke-width="1" opacity="0.45"></path><rect x="48" y="84" width="24" height="12" rx="2.4" fill="#0a1330" stroke="#0f172a" stroke-width="2"></rect><path d="M58 89 Q60 86 62 89 Q64 86 66 89 Q66 92 60 95 Q54 92 54 89 Q56 86 58 89 Z" fill="url(#b20_heart)" stroke="#0f172a" stroke-width="0.9" stroke-linejoin="round"></path><path d="M50 100 L54 100 L56 96 L58 104 L60 98 L62 102 L64 100 L70 100" stroke="#22c55e" stroke-width="1.2" stroke-linecap="round" stroke-linejoin="round" fill="none"></path><circle cx="45" cy="106" r="1.2" fill="#22c55e" stroke="#0f172a" stroke-width="0.6"></circle><circle cx="50" cy="106" r="1.2" fill="#dc2626" stroke="#0f172a" stroke-width="0.6"></circle><circle cx="55" cy="106" r="1.2" fill="#22c55e" stroke="#0f172a" stroke-width="0.6"></circle><circle cx="75" cy="106" r="1.2" fill="#3b82f6" stroke="#0f172a" stroke-width="0.6"></circle><g><rect x="28" y="78" width="6" height="20" rx="1" fill="#71717a" stroke="#0f172a" stroke-width="1.4"></rect><path d="M28 84 L34 84 M28 90 L34 90" stroke="#0f172a" stroke-width="0.7"></path><circle cx="31" cy="78" r="2.2" fill="#a3a3a3" stroke="#0f172a" stroke-width="1.2"></circle><circle cx="31" cy="98" r="2.2" fill="#a3a3a3" stroke="#0f172a" stroke-width="1.2"></circle></g><g transform="translate(20,102)"><rect x="-7" y="-4" width="14" height="10" rx="1.4" fill="#0a1330" stroke="#0f172a" stroke-width="1.4"></rect><rect x="-5.5" y="-2.5" width="11" height="7" rx="0.6" fill="#22c55e" opacity="0.4"></rect><path d="M-4 0 L0 0 L0 -1 L2 -1" stroke="#fde047" stroke-width="0.6" fill="none"></path><path d="M-4 2 L4 2" stroke="#fde047" stroke-width="0.6"></path><circle cx="2" cy="-1" r="0.6" fill="#fde047"></circle><circle cx="-3" cy="3" r="0.6" fill="#22c55e"></circle></g><g><rect x="86" y="78" width="6" height="20" rx="1" fill="#71717a" stroke="#0f172a" stroke-width="1.4"></rect><path d="M86 84 L92 84 M86 90 L92 90" stroke="#0f172a" stroke-width="0.7"></path><circle cx="89" cy="78" r="2.2" fill="#a3a3a3" stroke="#0f172a" stroke-width="1.2"></circle><circle cx="89" cy="98" r="2.2" fill="#a3a3a3" stroke="#0f172a" stroke-width="1.2"></circle></g><g transform="translate(100,100)"><circle cx="0" cy="0" r="5" fill="#22c55e" stroke="#0f172a" stroke-width="1.4"></circle><circle cx="0" cy="0" r="2" fill="#0a1330" stroke="#0f172a" stroke-width="0.8"></circle><rect x="-1" y="-7" width="2" height="3" fill="#22c55e" stroke="#0f172a" stroke-width="0.6" transform="rotate(0)"></rect><rect x="-1" y="-7" width="2" height="3" fill="#22c55e" stroke="#0f172a" stroke-width="0.6" transform="rotate(60)"></rect><rect x="-1" y="-7" width="2" height="3" fill="#22c55e" stroke="#0f172a" stroke-width="0.6" transform="rotate(120)"></rect><rect x="-1" y="-7" width="2" height="3" fill="#22c55e" stroke="#0f172a" stroke-width="0.6" transform="rotate(180)"></rect><rect x="-1" y="-7" width="2" height="3" fill="#22c55e" stroke="#0f172a" stroke-width="0.6" transform="rotate(240)"></rect><rect x="-1" y="-7" width="2" height="3" fill="#22c55e" stroke="#0f172a" stroke-width="0.6" transform="rotate(300)"></rect></g><rect x="54" y="68" width="12" height="10" rx="1" fill="#71717a" stroke="#0f172a" stroke-width="1.6"></rect><circle cx="58" cy="72" r="1.4" fill="#0a1330" stroke="#0f172a" stroke-width="0.6"></circle><circle cx="62" cy="76" r="1.4" fill="#0a1330" stroke="#0f172a" stroke-width="0.6"></circle><path d="M52 70 L48 66 M68 70 L72 66" stroke="#22c55e" stroke-width="1" stroke-linecap="round"></path><g><path d="M28 50 C28 22 40 10 60 10 C80 10 92 22 92 50 V66 C92 74 86 78 80 76 C72 78 48 78 40 76 C34 78 28 72 28 66 Z" fill="url(#b20_face)" stroke="#0f172a" stroke-width="2.4"></path><path d="M28 40 L92 40" stroke="#0f172a" stroke-width="0.7" opacity="0.5"></path><path d="M60 10 L60 76" stroke="#0f172a" stroke-width="0.6" opacity="0.4"></path><rect x="59" y="0" width="2" height="10" rx="0.6" fill="#71717a" stroke="#0f172a" stroke-width="1.2"></rect><circle cx="60" cy="0" r="2.4" fill="#dc2626" stroke="#0f172a" stroke-width="1.2"></circle><circle cx="60" cy="0" r="3.4" fill="none" stroke="#dc2626" stroke-width="0.6" opacity="0.55"></circle><circle cx="32" cy="44" r="1" fill="#22c55e" stroke="#0f172a" stroke-width="0.6"></circle><circle cx="32" cy="50" r="1" fill="#dc2626" stroke="#0f172a" stroke-width="0.6"></circle><circle cx="32" cy="56" r="1" fill="#fde047" stroke="#0f172a" stroke-width="0.6"></circle><circle cx="88" cy="44" r="1" fill="#22c55e" stroke="#0f172a" stroke-width="0.6"></circle><circle cx="88" cy="50" r="1" fill="#dc2626" stroke="#0f172a" stroke-width="0.6"></circle><circle cx="88" cy="56" r="1" fill="#fde047" stroke="#0f172a" stroke-width="0.6"></circle><rect x="34" y="44" width="52" height="14" rx="3" fill="url(#b20_visor)" stroke="#0f172a" stroke-width="2.2"></rect><rect x="36" y="46" width="48" height="2" rx="1" fill="#5b8dff" opacity="0.18"></rect><circle cx="48" cy="51" r="4" fill="#22c55e" stroke="#0f172a" stroke-width="1.2"></circle><circle cx="48" cy="51" r="2.4" fill="#0a1330"></circle><circle cx="48" cy="51" r="5" fill="none" stroke="#22c55e" stroke-width="0.5" opacity="0.45"></circle><circle cx="72" cy="51" r="4" fill="#22c55e" stroke="#0f172a" stroke-width="1.2"></circle><circle cx="72" cy="51" r="2.4" fill="#0a1330"></circle><circle cx="72" cy="51" r="5" fill="none" stroke="#22c55e" stroke-width="0.5" opacity="0.45"></circle><rect x="48" y="62" width="24" height="6" rx="1.2" fill="#0a1330" stroke="#0f172a" stroke-width="1.4"></rect><path d="M50 64 L70 64 M50 66 L70 66" stroke="#22c55e" stroke-width="0.8"></path><path d="M58 74 L62 74" stroke="#0f172a" stroke-width="1.2" stroke-linecap="round"></path></g></svg>
